<svg width="48" height="32" viewBox="0 0 48 32" fill="none" xmlns="http://www.w3.org/2000/svg">
<path d="M16.5746 20.3075C16.3253 20.1633 16.0793 20.0236 15.8412 19.8905C15.3326 19.6597 14.8675 19.4179 14.3834 19.276C13.4422 18.9421 12.5646 18.779 11.8122 18.616C11.0543 18.4685 10.4115 18.3398 9.8704 18.2255C9.34833 18.1057 8.93022 18.0004 8.60379 17.9028C8.80949 18.0547 9.03643 18.2311 9.30026 18.4019C9.46124 18.484 9.63116 18.5683 9.81226 18.6615C9.99896 18.7513 10.1912 18.8057 10.3902 18.89C10.5982 18.9632 10.8374 19.0319 11.0699 19.1107C11.194 19.1473 11.3192 19.1861 11.4455 19.2272C11.5093 19.2482 11.5752 19.2671 11.6378 19.2893L11.6881 19.3026L11.7016 19.3092C11.7016 19.3092 11.7127 19.3126 11.7138 19.3126L11.7172 19.3137L11.8156 19.3414C12.0828 19.4146 12.3533 19.49 12.6361 19.5699C12.9156 19.6442 13.2096 19.7429 13.5003 19.7929C14.0894 19.9093 14.692 20.0568 15.356 20.1389C15.7495 20.2066 16.1598 20.2576 16.5746 20.3075ZM18.9736 24.0655C17.7763 23.3257 16.5064 22.9863 15.3281 22.8421C14.0235 22.6868 12.8172 22.6868 11.7753 22.7167C10.7256 22.7689 9.81003 22.8687 9.01742 22.973C7.66586 23.1527 6.67091 23.3124 5.96885 23.4045C5.96215 23.4045 5.96103 23.4078 5.95208 23.4111C5.82017 23.451 5.67819 23.4954 5.52504 23.5597C5.50603 23.5675 5.48479 23.5775 5.46132 23.5853C6.12536 23.6396 6.8889 23.6097 7.72063 23.5442C8.3545 23.4921 9.06885 23.4411 9.78767 23.4377C10.4975 23.4333 11.2365 23.43 11.9922 23.4266C12.7122 23.43 13.4142 23.4333 14.0939 23.4377C14.4315 23.4433 14.7658 23.4488 15.0889 23.4544C15.4209 23.4732 15.7473 23.4888 16.0659 23.5054C17.1458 23.5775 18.1452 23.776 18.9736 24.0655ZM19.9317 26.1908C20.2223 26.2695 20.5208 26.3727 20.8081 26.5136C17.1458 22.9974 10.3377 24.9773 5.59882 26.0433C5.60665 26.1442 5.57646 26.2529 5.48591 26.3494C5.04992 26.8075 4.55915 27.1835 4.0315 27.5008C7.42327 27.3244 10.7737 26.7798 14.1688 26.5346C16.2079 26.3893 18.437 26.3139 20.4795 26.8108C20.2659 26.7177 20.0424 26.6422 19.8232 26.5846C19.1737 26.4115 18.522 26.3428 17.8971 26.3139C17.2721 26.2829 16.6741 26.2928 16.1017 26.3073C15.5282 26.3217 14.9826 26.335 14.4673 26.3461C12.4058 26.3971 10.7983 26.4271 9.56856 26.4248C8.33884 26.4271 7.49034 26.4215 6.95039 26.4082C6.40931 26.3927 6.17679 26.3705 6.17679 26.3394C6.17679 26.3139 6.40931 26.2829 6.95039 26.2485C7.49034 26.213 8.33773 26.1775 9.56297 26.1364C10.7904 26.0932 12.3969 26.0377 14.4595 25.9712C14.9737 25.9534 15.517 25.9346 16.0927 25.9146C16.6629 25.8991 17.2733 25.8858 17.9161 25.9135C18.5578 25.9401 19.2341 26.0078 19.9317 26.1908ZM20.8439 24.4649C21.1167 24.7089 21.376 24.974 21.6287 25.2579C21.3481 24.6268 20.9926 24.0544 20.589 23.552C20.3364 23.2359 20.0669 22.9463 19.7942 22.6735C18.8786 22.4594 17.9518 22.3851 17.0184 22.3707C17.0251 22.374 17.0284 22.374 17.0296 22.374C17.214 22.4272 17.3974 22.4916 17.5874 22.5504C18.3409 22.7744 19.0787 23.1704 19.8042 23.6451C20.153 23.8981 20.4951 24.1776 20.8439 24.4649ZM22.2782 28.5922C22.2245 28.4835 22.1731 28.3771 22.1183 28.275C19.5136 26.9517 16.2235 27.1425 13.4064 27.4176C9.68594 27.7781 5.99904 28.3438 2.25177 28.3726C1.98011 28.7509 1.7297 29.1446 1.50052 29.5473C2.44852 29.626 3.44123 29.5661 4.38141 29.585C6.74693 29.6338 9.11245 29.6804 11.4768 29.7236C14.853 29.7857 18.2347 29.8756 21.6108 29.9089C21.6287 29.8434 21.6466 29.7813 21.6689 29.7181C18.958 29.3709 16.6741 29.3288 14.8049 29.321C12.8877 29.3276 11.3941 29.3354 10.2527 29.3376C9.11245 29.3432 8.32319 29.3276 7.82237 29.3055C7.32042 29.2855 7.10131 29.2589 7.10131 29.2311C7.10131 29.2045 7.32042 29.1757 7.82237 29.1468C8.32319 29.118 9.10797 29.0903 10.2471 29.0492C11.3874 29.0104 12.8832 28.9594 14.8049 28.9427C16.7042 28.9317 19.0318 28.9594 21.8187 29.3243C21.8277 29.3021 21.8422 29.2777 21.8534 29.2533C19.7394 28.9084 17.9407 28.8374 16.4516 28.7908C14.8563 28.7509 13.602 28.7531 12.6507 28.732C10.7413 28.6932 10.0146 28.6422 10.0146 28.5845C10.0146 28.5301 10.7413 28.478 12.6507 28.4403C13.6031 28.427 14.8519 28.3937 16.4594 28.4125C17.8099 28.4369 19.423 28.4913 21.2989 28.7553C20.845 28.5889 20.3777 28.509 19.9417 28.4447C19.2375 28.3538 18.5701 28.3116 17.9876 28.2495C16.816 28.1463 15.9027 28.0188 15.2051 28.0044C13.8032 27.9256 13.2689 27.8602 13.2689 27.8036C13.2689 27.7459 13.8032 27.7115 15.2152 27.716C15.9239 27.6949 16.8406 27.7892 18.0234 27.8746C18.6159 27.9256 19.2598 27.9578 19.9943 28.0487C20.361 28.0997 20.7455 28.1596 21.1424 28.2761C21.4856 28.3648 21.831 28.519 22.1675 28.7253C22.2033 28.6788 22.2391 28.6355 22.2782 28.5922ZM22.8237 26.1908C22.8752 25.3556 22.8629 24.5558 22.7813 23.8004C22.352 23.2669 21.7159 22.7711 20.9535 22.374C20.7466 22.2653 20.5342 22.1677 20.314 22.0712C20.6248 22.3707 20.9277 22.6923 21.2184 23.0484C21.7427 23.6962 22.2145 24.4504 22.5454 25.3145C22.6561 25.6007 22.7488 25.8913 22.8237 26.1908ZM24.466 30.6432C24.2547 30.0819 24.0423 29.4974 23.6152 29.1291C22.9624 28.5645 22.5521 29.5506 22.3598 30.3958C23.0093 30.1207 23.7527 30.3625 24.466 30.6432ZM34.4691 27.6006C35.1488 27.605 35.8263 27.6161 36.5026 27.6328C35.8028 27.5318 35.1019 27.4531 34.392 27.4198C32.572 27.33 30.647 27.2545 28.8482 27.605C28.0265 27.7659 27.2753 28.041 26.5453 28.3771C29.1691 27.95 31.7872 27.5862 34.4691 27.6006ZM40.2924 21.4766C40.1549 21.3613 40.0174 21.2481 39.8799 21.1372C39.2292 20.5959 38.5808 20.0779 37.8486 19.6564C37.0806 19.2161 36.4456 19.3769 35.5949 19.4179C35.1343 19.4423 34.7151 19.4801 34.3808 19.4889C34.0231 19.5433 33.6296 19.6021 33.1857 19.6731C32.5251 19.7818 31.7604 19.9127 30.903 20.1101C30.0466 20.3219 29.0807 20.576 28.078 21.0219C27.0808 21.4655 26.0188 22.0934 25.1826 23.1027C24.8807 23.4566 24.6236 23.8626 24.4078 24.3085C24.2815 25.0128 24.1496 25.7471 24.0121 26.5114C24.495 25.8558 25.0182 25.2391 25.6879 24.751C26.9489 23.837 28.3362 23.1138 29.8264 22.6435C32.411 21.8249 35.2025 21.6064 37.8844 21.5476C38.3092 21.5188 38.7888 21.5044 39.3041 21.4955C39.6205 21.49 39.9514 21.4844 40.2924 21.4766ZM43.7736 28.1596C43.1487 27.798 42.5338 27.4231 42.1235 26.8075C42.081 26.7487 42.062 26.6888 42.0576 26.6278C42.0486 26.6123 42.0408 26.5957 42.0352 26.5768C41.8217 25.7848 41.5433 25.0172 41.2516 24.2563C37.9973 23.6241 34.5753 23.5464 31.3032 24.121C28.6548 24.588 26.0434 25.5053 24.4123 27.6982C24.7812 27.391 25.139 27.0793 25.5068 26.7898C26.1551 26.335 26.7812 25.9922 27.4016 25.6684C28.6291 25.0261 29.8376 24.5736 30.9667 24.3894C33.1824 23.9846 34.9487 23.8126 36.2969 23.8548C37.6451 23.8947 38.5697 24.0711 39.1376 24.2408C39.7043 24.4205 39.9402 24.5114 39.9324 24.5403C39.9212 24.5658 39.6686 24.5259 39.0984 24.3961C38.5316 24.2752 37.6183 24.1443 36.2936 24.1432C34.97 24.1432 33.2361 24.3351 31.036 24.7599C29.9483 24.9474 28.7968 25.3877 27.5872 26.0255C26.9846 26.3428 26.3452 26.6966 25.756 27.1114C25.4486 27.3521 25.1479 27.6161 24.8282 27.8857C25.9629 27.2146 27.045 26.6167 28.1026 26.1719C28.7644 25.8858 29.4217 25.6761 30.0545 25.5075C30.6906 25.3611 31.3032 25.2435 31.8823 25.1858C33.0482 25.0527 34.0879 25.045 35.0035 25.0483C35.9157 25.0527 36.7139 25.0561 37.4081 25.0838C38.7921 25.1381 39.7457 25.3012 40.3393 25.4454C40.9218 25.6062 41.1655 25.7038 41.1655 25.7305C41.1431 25.827 40.1448 25.4121 37.3981 25.3722C36.7106 25.3666 35.9191 25.3766 35.0035 25.3877C34.0924 25.3988 33.0639 25.4177 31.9314 25.5597C31.3613 25.6218 30.7666 25.7416 30.1517 25.8858C29.5424 26.0544 28.9063 26.2596 28.2624 26.5413C28.2546 26.5446 28.2457 26.548 28.2378 26.5524C29.5503 26.1154 30.7777 25.8503 31.8968 25.7504C34.0611 25.5319 35.7547 25.7504 37.0157 25.9712C37.331 26.0333 37.6228 26.0899 37.8888 26.1409C38.1527 26.213 38.3941 26.2751 38.6144 26.3317C38.829 26.3927 39.0269 26.4437 39.2035 26.4914C39.3746 26.5524 39.53 26.6012 39.6641 26.6478C40.1951 26.833 40.4198 26.9273 40.4098 26.955C40.4019 26.9806 40.1593 26.9351 39.6172 26.7998C39.483 26.7676 39.3265 26.7254 39.151 26.6811C38.9743 26.6422 38.7776 26.6012 38.5596 26.5557C38.3394 26.5058 38.0979 26.4548 37.8363 26.3971C37.5691 26.3538 37.2807 26.3073 36.9688 26.2562C35.719 26.0732 34.0488 25.8913 31.937 26.1253C30.9622 26.223 29.9013 26.447 28.7655 26.8031C30.3205 26.5812 31.8856 26.5058 33.4563 26.5635C36.478 26.6744 39.3556 27.4564 42.2957 27.9888C42.7887 28.0376 43.2795 28.0942 43.7736 28.1596ZM35.6463 29.7758C38.9419 29.7758 42.2879 29.7758 45.5399 29.7758C45.3353 29.5772 45.1251 29.3831 44.9183 29.1879C44.9139 29.1846 44.9072 29.1879 44.8993 29.1879C44.0855 29.1036 43.2761 28.9705 42.4734 28.8185C39.8173 28.5301 37.1432 28.4203 34.4691 28.4159C31.2093 28.4092 28.0456 28.9494 24.8449 29.4818C24.8952 29.5872 24.9456 29.6959 24.9903 29.8046C25.756 29.7758 26.3105 29.7647 26.941 29.7214C27.6051 29.6637 28.2155 29.6061 28.8192 29.555C29.4217 29.4962 29.9941 29.4386 30.5407 29.3831C31.0908 29.3432 31.6128 29.3055 32.1058 29.27C32.3529 29.2456 32.5933 29.2478 32.8269 29.2456C33.0594 29.2422 33.2875 29.2422 33.5066 29.2389C33.9471 29.2378 34.3629 29.2345 34.752 29.2311C35.53 29.23 36.2097 29.2201 36.7966 29.2389C37.9682 29.2633 38.7776 29.291 39.2941 29.3177C39.8128 29.3454 40.0341 29.3742 40.0341 29.4031C40.0341 29.4297 39.8128 29.4541 39.2941 29.4763C38.7776 29.4974 37.9682 29.5162 36.7966 29.5284C36.2075 29.5284 35.5323 29.555 34.7564 29.5717C34.3707 29.5794 33.956 29.5872 33.52 29.5983C33.302 29.6049 33.0762 29.6094 32.8425 29.6127C32.6089 29.6171 32.3719 29.6171 32.1282 29.6449C31.8342 29.6693 31.5268 29.6959 31.2126 29.7214C32.695 29.7314 34.1785 29.7758 35.6463 29.7758ZM46.8121 31.0236C46.6433 30.9149 46.4566 30.8229 46.2923 30.7164C46.2352 30.6809 46.1939 30.6376 46.1637 30.5921C42.7417 30.5921 39.5121 30.5921 36.1829 30.5921C32.6313 30.5921 28.9578 30.3304 25.4363 30.8639C25.462 30.9183 25.4877 30.9704 25.5157 31.0214C25.528 31.0436 25.5392 31.068 25.5481 31.0902C32.6346 31.0979 39.7267 31.3253 46.8121 31.0236ZM0.839832 30.5866C0.839832 30.5866 0.836479 30.5921 0.833125 30.5921C0.839832 30.5921 0.845422 30.5888 0.849894 30.5833C0.872252 30.5833 0.946035 30.5921 0.946035 30.5921C0.951625 30.5921 0.958332 30.5933 0.962804 30.5933C1.00193 30.5888 1.03882 30.5866 1.08354 30.5921C2.15451 30.733 3.30373 30.6509 4.38141 30.6731C6.74693 30.7219 9.11245 30.7685 11.4768 30.8129C14.7579 30.8739 18.0424 30.9582 21.3235 30.9926C21.3235 30.9072 21.3235 30.8129 21.3235 30.7197C18.0424 30.6864 14.7579 30.6032 11.4768 30.54C9.11245 30.4956 6.74693 30.4524 4.38141 30.4036C3.31267 30.3814 2.17239 30.4602 1.10813 30.3259C1.07795 30.347 1.04218 30.3659 1.0064 30.3814C0.99187 30.398 0.979572 30.4169 0.962804 30.4346C0.896846 30.4934 0.875606 30.5611 0.849894 30.5833H0.847658C0.845422 30.5833 0.842068 30.5888 0.839832 30.5866ZM9.60657 24.3318C8.97047 24.3306 8.37015 24.3573 7.76759 24.3783C6.46745 24.4316 5.22879 24.3883 4.26067 23.9957L3.51613 23.6906L4.24725 23.4189C5.07787 23.1116 5.77992 23.0051 6.27181 22.9508C6.28411 22.9508 6.29193 22.9508 6.30311 22.9508C6.95598 22.7922 7.81454 22.6036 8.92687 22.4017C9.72507 22.2609 10.6563 22.1211 11.7373 22.039C12.2918 22.0102 12.8865 21.988 13.5159 21.9913C13.5517 21.9658 13.592 21.9492 13.6467 21.9492C15.4701 21.9303 17.2956 21.7684 19.0843 22.039C19.0709 22.0257 19.053 22.0102 19.0373 21.9958C18.8126 21.8116 18.5846 21.6375 18.361 21.4722C18.0122 21.4034 17.6567 21.3491 17.2912 21.3169C16.5746 21.2315 15.8792 21.1527 15.2073 21.0252C14.5355 20.9287 13.8848 20.7557 13.2622 20.607C12.948 20.5382 12.673 20.4295 12.3935 20.3397C12.1174 20.2465 11.8491 20.1545 11.5886 20.0668L11.4925 20.0347L11.4265 20.0103L11.3796 19.9914C11.317 19.9659 11.2544 19.9426 11.194 19.9215C11.0699 19.8716 10.9537 19.8217 10.834 19.7773C10.5937 19.6775 10.3656 19.591 10.1409 19.4889C9.91847 19.3769 9.69041 19.276 9.51266 19.165C9.42211 19.1074 9.33715 19.0497 9.25666 18.9964C9.21418 18.9676 9.17617 18.9421 9.13592 18.9132L9.07555 18.8766L9.04649 18.8545L9.03866 18.8489L9.02078 18.8378C9.01407 18.8334 9.00177 18.8223 9.00177 18.8223C8.69658 18.5638 8.4797 18.3187 8.3109 18.1313C8.22817 18.0392 8.15327 17.9538 8.08731 17.8784C8.01912 17.8074 7.95987 17.7452 7.91292 17.6931C7.89056 17.6687 7.87379 17.6476 7.85814 17.6266C7.71616 17.5622 7.65468 17.519 7.6625 17.4923C7.68039 17.438 7.98111 17.4613 8.64404 17.5833C8.98165 17.6332 9.41317 17.6953 9.952 17.7741C10.4942 17.8484 11.1437 17.9383 11.914 18.0436C12.6864 18.1745 13.5897 18.3076 14.5981 18.6348C15.109 18.7679 15.6266 19.0131 16.1811 19.2549C16.7042 19.5322 17.2531 19.8284 17.8143 20.1822C18.0022 20.2964 18.1877 20.4196 18.38 20.5427C18.4091 20.5493 18.4426 20.5538 18.475 20.5638C18.8316 20.6325 19.1771 20.7235 19.5113 20.8289C20.1799 21.0396 20.8059 21.3103 21.3671 21.6341C21.8064 21.8837 22.2089 22.1721 22.5621 22.4882C22.5074 22.262 22.4504 22.039 22.4001 21.8216C22.2793 21.4655 22.1631 21.1195 22.0501 20.7845C21.9048 20.4562 21.764 20.1411 21.6287 19.8317C21.4856 19.5211 21.3157 19.2238 21.1703 18.9343C20.5611 17.773 19.9686 16.7569 19.4532 15.8518C18.9334 14.9478 18.4862 14.1547 18.1016 13.4615C16.5969 10.6751 16.2582 9.5038 16.342 9.4672C16.4684 9.41395 16.9893 10.4877 18.6092 13.1742C19.0206 13.8441 19.4968 14.6195 20.0424 15.5057C20.5857 16.4009 21.2028 17.4069 21.8389 18.5794C21.9954 18.8766 22.1675 19.1695 22.3229 19.49C22.4716 19.8173 22.6281 20.1522 22.7813 20.4983C22.9076 20.8566 23.0417 21.2204 23.1692 21.5987C23.262 21.988 23.3793 22.3806 23.4565 22.7922C23.5157 23.1094 23.5605 23.4333 23.5951 23.7649C23.6186 23.8049 23.6342 23.8481 23.6532 23.8892C24.0177 21.8948 24.3464 20.1356 24.637 18.5849C25.1099 16.0659 25.4844 14.1026 25.7874 12.6107C26.3921 9.61694 26.694 8.49664 26.8058 8.51549C26.9187 8.53768 26.817 9.69569 26.3597 12.7094C26.1328 14.2157 25.8175 16.1879 25.3894 18.7136C25.1971 19.825 24.9824 21.0518 24.7466 22.3884C25.6722 21.3757 26.7734 20.7557 27.7761 20.3308C28.8583 19.8749 29.8655 19.6342 30.7565 19.4501C31.6464 19.2737 32.4312 19.1728 33.1097 19.0996C33.6765 19.0397 34.1673 19.002 34.5921 18.9743C35.094 18.9421 35.4283 18.8733 35.937 18.9166C36.4277 18.9554 36.9286 18.8844 37.4182 18.8489C37.5121 18.8445 37.6954 18.7946 37.7715 18.8023C38.753 18.9088 39.7513 19.8361 40.4746 20.4318C40.9296 20.81 41.3578 21.1772 41.7747 21.4766L42.7753 22.1976L41.5623 22.2908C41.4561 22.2986 41.3533 22.2986 41.2448 22.3041C41.1934 22.3274 41.1331 22.3418 41.0604 22.3418C37.7715 22.3418 34.1706 22.2331 30.9074 23.1682C30.3172 23.3401 29.7347 23.5309 29.1668 23.755C29.794 23.5775 30.4357 23.4377 31.0829 23.3335C34.5776 22.7822 38.1057 22.8021 41.5825 23.4888C41.6875 23.512 41.7613 23.5597 41.8094 23.6252C41.8731 23.6684 41.9279 23.7339 41.9603 23.8193C42.2879 24.6534 42.5931 25.4931 42.8301 26.3583C42.8323 26.3727 42.8323 26.386 42.8356 26.4004C43.3845 27.2157 44.4745 27.5462 45.2448 28.1086C45.3934 28.2207 45.437 28.3804 45.4158 28.5268C45.8406 28.9427 46.2744 29.3432 46.6656 29.7924C46.8512 29.8401 46.9462 29.9987 46.9529 30.164C47.3465 30.398 47.7556 30.6299 47.9512 31.0647C48.0418 31.2677 48.0139 31.5028 47.8026 31.6248C47.797 31.6282 47.7892 31.6282 47.7847 31.6337C47.7198 31.7346 47.6103 31.8078 47.4571 31.8156C40.1515 32.1639 32.837 31.9132 25.5269 31.9055C25.3938 31.9055 25.2921 31.8544 25.2284 31.7779C25.1859 31.7779 25.1457 31.7723 25.0987 31.7568C24.2547 31.4695 23.0283 30.5788 22.2983 31.4695C22.286 31.4873 22.2715 31.4973 22.2581 31.5117C22.2189 31.677 22.0937 31.8189 21.8724 31.8156C18.4068 31.7857 14.9402 31.6925 11.4768 31.6282C9.11245 31.5849 6.74693 31.5405 4.38141 31.4895C3.30373 31.4662 2.15451 31.5483 1.08354 31.4074C1.07012 31.4041 1.05783 31.4019 1.04553 31.3997C1.01535 31.4041 0.982926 31.4074 0.946035 31.4074C0.56706 31.3997 0.0975329 31.2355 0.0170426 30.814C-0.0545043 30.4391 0.105358 30.1019 0.381485 29.8501C0.404961 29.8279 0.428438 29.8113 0.453032 29.7957C0.460857 29.7503 0.47539 29.707 0.499984 29.6604C0.856601 29.0026 1.2311 28.3549 1.68722 27.757C1.74982 27.676 1.82696 27.6261 1.91304 27.6017C1.9298 27.5906 1.95328 27.5795 1.97676 27.5695C3.15616 27.137 4.21707 26.65 4.74138 25.4742C5.46914 25.4265 6.31429 25.0483 7.04541 24.8819C7.83802 24.7022 8.79496 24.3318 9.60657 24.3318Z" fill="#B400F4"/>
<mask id="mask0_11_406" style="mask-type:luminance" maskUnits="userSpaceOnUse" x="29" y="12" width="7" height="6">
<path d="M29.5891 12.2107H35.3129V17.3219H29.5891V12.2107Z" fill="white"/>
</mask>
<g mask="url(#mask0_11_406)">
<mask id="mask1_11_406" style="mask-type:luminance" maskUnits="userSpaceOnUse" x="28" y="10" width="9" height="9">
<path d="M34.9495 10.223L36.9551 16.2949L30.2241 18.4833L28.2185 12.4115L34.9495 10.223Z" fill="white"/>
</mask>
<g mask="url(#mask1_11_406)">
<mask id="mask2_11_406" style="mask-type:luminance" maskUnits="userSpaceOnUse" x="7" y="6" width="40" height="39">
<path d="M36.9015 6.099L46.3267 34.6346L16.5486 44.3191L7.12231 15.7835L36.9015 6.099Z" fill="white"/>
</mask>
<g mask="url(#mask2_11_406)">
<path fill-rule="evenodd" clip-rule="evenodd" d="M32.0251 15.3177C32.0408 15.3244 32.0553 15.3299 32.0754 15.3355C32.09 15.3199 32.0989 15.3088 32.1045 15.2889C32.1313 15.2933 32.166 15.2434 32.1526 15.219C32.1749 15.209 32.2174 15.1691 32.204 15.1391C32.2252 15.1314 32.2319 15.1169 32.242 15.0992C32.4332 15.4619 32.2073 15.9211 32.3001 16.316C32.3314 16.4524 32.3549 16.4646 32.4589 16.5367C32.5919 16.5123 32.6724 16.4879 32.7831 16.5811C33.0223 16.7819 32.9988 17.2744 33.1766 17.2256C33.2459 17.2056 33.1989 16.9882 33.2045 16.8007C33.2101 16.6388 33.2023 16.1141 33.4337 16.0975C33.4449 16.0975 33.4561 16.0975 33.4672 16.0975C33.4684 15.9666 33.4874 15.8357 33.6461 15.8291C33.5869 15.6715 33.5343 15.5118 33.4751 15.3532C33.674 15.4364 33.9289 15.5917 34.0642 15.4464C34.157 15.3465 34.1044 15.4231 34.214 15.361C34.3593 15.28 34.3437 15.1913 34.3839 15.1391C34.4298 15.0781 34.6109 15.0393 34.7081 14.7764C34.7607 14.6344 34.9049 14.5524 34.9775 14.4192C35.0088 14.3638 35.0133 14.3139 35.0055 14.2518C35.3945 13.9367 34.622 13.5696 34.3381 13.5818C34.091 13.5929 33.7948 13.6639 33.607 13.726C33.2448 13.8491 32.9116 14.0332 32.5863 14.2329C32.5885 14.2063 32.5718 14.1941 32.5505 14.183C32.6199 14.1952 32.6702 14.0754 32.5953 14.0576L32.5919 14.0443C32.7831 13.9401 32.8334 14.0654 33.0614 13.8768C33.076 13.8646 33.0804 13.8513 33.0782 13.8314C33.076 13.8303 33.0726 13.8291 33.0704 13.828C32.9955 13.8768 33.0301 13.9722 32.7417 13.99C32.6825 13.9944 32.64 14.0111 32.5919 14.0432C32.583 14.0055 32.5796 13.9733 32.5874 13.9345L32.5584 13.9234C32.5382 13.9567 32.5125 13.9789 32.4812 14.0011C32.4678 13.9445 32.4477 13.9024 32.4074 13.8602C32.2073 13.6528 32.2979 13.6062 32.2778 13.5197C32.2744 13.5186 32.2722 13.5175 32.2688 13.5163C32.2532 13.5308 32.2476 13.543 32.2498 13.5618C32.2878 13.8535 32.4108 13.7948 32.4801 14.0011L32.4689 14.0088C32.4019 13.97 32.3571 14.0931 32.4153 14.1309C32.3918 14.1242 32.3717 14.1231 32.3549 14.1431C32.2532 13.7781 32.1347 13.4187 31.9513 13.0838C31.8574 12.9118 31.6886 12.66 31.5142 12.4859C31.3152 12.2862 30.4958 12.0355 30.5662 12.528C30.5182 12.5691 30.4869 12.609 30.4712 12.67C30.4332 12.8164 30.4835 12.9751 30.4254 13.1137C30.3158 13.3722 30.422 13.523 30.4153 13.5984C30.4086 13.6628 30.3359 13.7193 30.3862 13.8757C30.4254 13.9955 30.4388 13.9035 30.4388 14.0399C30.4388 14.2373 30.7328 14.295 30.9351 14.3682C30.7842 14.4437 30.6355 14.5257 30.4835 14.6023C30.5953 14.7132 30.5204 14.823 30.431 14.9195C30.4399 14.9273 30.4477 14.9339 30.4567 14.9417C30.6143 15.1092 30.2499 15.4896 30.1425 15.6117C30.0184 15.7536 29.8351 15.8823 29.872 15.9433C29.9693 16.0986 30.289 15.7215 30.602 15.7348C30.7473 15.7414 30.7898 15.8124 30.8703 15.92C30.9966 15.9378 31.0223 15.9433 31.1386 15.8657C31.4773 15.6372 31.626 15.148 32.0151 15.0105C32.0095 15.0315 32.005 15.046 32.0151 15.0659C31.9849 15.0792 31.9882 15.1369 31.9983 15.1591C31.9726 15.168 31.9636 15.2279 31.986 15.2423C31.9759 15.2611 31.9748 15.2756 31.9759 15.2966C31.9938 15.3066 32.0083 15.3122 32.0251 15.3177Z" fill="#B400F4"/>
</g>
</g>
</g>
<mask id="mask3_11_406" style="mask-type:luminance" maskUnits="userSpaceOnUse" x="32" y="2" width="5" height="5">
<path d="M32.4521 2.27185H36.4588V6.24727H32.4521V2.27185Z" fill="white"/>
</mask>
<g mask="url(#mask3_11_406)">
<mask id="mask4_11_406" style="mask-type:luminance" maskUnits="userSpaceOnUse" x="31" y="1" width="7" height="7">
<path d="M37.9501 3.18701L36.4085 7.38981L31.7703 5.71379L33.3119 1.51099L37.9501 3.18701Z" fill="white"/>
</mask>
<g mask="url(#mask4_11_406)">
<mask id="mask5_11_406" style="mask-type:luminance" maskUnits="userSpaceOnUse" x="13" y="-6" width="28" height="28">
<path d="M40.7875 1.7717L33.6663 21.184L13.2944 13.8277L20.4156 -5.58459L40.7875 1.7717Z" fill="white"/>
</mask>
<g mask="url(#mask5_11_406)">
<path fill-rule="evenodd" clip-rule="evenodd" d="M34.1737 4.69332C34.1793 4.70441 34.1849 4.71329 34.1939 4.72438C34.2084 4.72216 34.2173 4.72105 34.2296 4.71107C34.2419 4.72549 34.2822 4.71329 34.2855 4.69443C34.3023 4.69887 34.3425 4.69443 34.3481 4.67335C34.3627 4.67779 34.3727 4.67335 34.3861 4.66781C34.3336 4.944 34.0139 5.09707 33.8943 5.34997C33.854 5.43649 33.8607 5.45313 33.8864 5.53632C33.9692 5.57958 34.0239 5.60066 34.0441 5.69716C34.0888 5.9068 33.8641 6.16414 33.9815 6.21183C34.0273 6.23069 34.0955 6.09315 34.1793 5.99443C34.252 5.90902 34.4733 5.62173 34.6064 5.71047C34.612 5.71601 34.6176 5.72045 34.6243 5.72489C34.6813 5.65501 34.7472 5.59289 34.8367 5.65612C34.8724 5.5452 34.9127 5.43649 34.9473 5.32668C35.02 5.45535 35.0927 5.64724 35.2291 5.62617C35.3218 5.61064 35.2604 5.6306 35.3476 5.64281C35.4605 5.66055 35.4906 5.6062 35.5342 5.594C35.5857 5.5818 35.7019 5.63726 35.8674 5.53521C35.9557 5.48086 36.0708 5.4975 36.167 5.45646C36.2072 5.43982 36.2318 5.41431 36.2542 5.3777C36.6007 5.37216 36.338 4.84639 36.1782 4.73325C36.0395 4.63453 35.8473 4.54801 35.7187 4.50254C35.4683 4.41602 35.2078 4.37498 34.9451 4.34503C34.9574 4.33172 34.954 4.3173 34.9473 4.30288C34.9798 4.33837 35.0591 4.29511 35.0245 4.25407L35.0289 4.2452C35.1787 4.2696 35.1519 4.35834 35.3565 4.35279C35.3699 4.35279 35.3777 4.34725 35.3856 4.33504C35.3844 4.33394 35.3833 4.33172 35.3822 4.33061C35.3207 4.32506 35.2984 4.39161 35.134 4.27958C35.1005 4.25629 35.0692 4.24742 35.0289 4.2452C35.0412 4.2208 35.0524 4.20083 35.0737 4.18419L35.0625 4.16533C35.0379 4.17532 35.0144 4.17643 34.9876 4.17421C35.0044 4.13871 35.0111 4.10766 35.0077 4.06772C34.9876 3.87139 35.058 3.8847 35.0826 3.82924C35.0815 3.82702 35.0815 3.82592 35.0804 3.8237C35.0658 3.82481 35.0569 3.82813 35.0502 3.84034C34.9451 4.01337 35.0379 4.03445 34.9865 4.17421H34.9775C34.9574 4.12429 34.8803 4.17199 34.8959 4.21747C34.8859 4.20416 34.8758 4.19417 34.8579 4.19861C34.9585 3.95791 35.0491 3.71389 35.0927 3.45544C35.1161 3.32233 35.1318 3.11491 35.1117 2.94742C35.0893 2.75442 34.7506 2.27302 34.5773 2.56918C34.5337 2.5714 34.4991 2.57916 34.4644 2.60578C34.3817 2.66901 34.3403 2.77549 34.2486 2.82652C34.0787 2.91969 34.072 3.04614 34.0351 3.08385C34.0038 3.11602 33.9401 3.11602 33.901 3.22139C33.8708 3.30237 33.9177 3.25911 33.8585 3.33232C33.7735 3.4388 33.9088 3.59409 33.9882 3.71943C33.873 3.69725 33.7568 3.67839 33.6416 3.6551C33.655 3.76269 33.5667 3.79042 33.4773 3.80484C33.4784 3.8126 33.4795 3.82037 33.4806 3.82702C33.4952 3.98453 33.133 4.03667 33.0223 4.05663C32.8937 4.08103 32.7394 4.07327 32.7339 4.12208C32.7193 4.24631 33.0558 4.17754 33.2201 4.3173C33.2962 4.38274 33.2883 4.43931 33.2861 4.53137C33.3476 4.5946 33.3588 4.60791 33.456 4.61567C33.7389 4.63564 34.0295 4.43376 34.3001 4.52361C34.2889 4.53248 34.2788 4.53914 34.2766 4.55356C34.2542 4.54801 34.2308 4.58018 34.2274 4.59682C34.2095 4.59016 34.1782 4.619 34.1849 4.63675C34.1715 4.6423 34.1648 4.65006 34.1558 4.66115C34.1614 4.67446 34.167 4.68334 34.1737 4.69332Z" fill="#B400F4"/>
</g>
</g>
</g>
<mask id="mask6_11_406" style="mask-type:luminance" maskUnits="userSpaceOnUse" x="34" y="1" width="3" height="1">
<path d="M34.4543 1.42017H36.7438V1.98808H34.4543V1.42017Z" fill="white"/>
</mask>
<g mask="url(#mask6_11_406)">
<mask id="mask7_11_406" style="mask-type:luminance" maskUnits="userSpaceOnUse" x="31" y="1" width="7" height="7">
<path d="M37.9489 3.18713L36.4073 7.38993L31.769 5.71391L33.3107 1.51111L37.9489 3.18713Z" fill="white"/>
</mask>
<g mask="url(#mask7_11_406)">
<mask id="mask8_11_406" style="mask-type:luminance" maskUnits="userSpaceOnUse" x="13" y="-6" width="28" height="28">
<path d="M40.7862 1.77182L33.6651 21.1841L13.2932 13.8279L20.4144 -5.58447L40.7862 1.77182Z" fill="white"/>
</mask>
<g mask="url(#mask8_11_406)">
<path fill-rule="evenodd" clip-rule="evenodd" d="M35.5298 1.2993C35.5376 1.2993 35.5432 1.2993 35.5522 1.29819C35.5544 1.29043 35.5566 1.28488 35.5555 1.27601C35.5656 1.27379 35.5712 1.24938 35.5622 1.24273C35.5689 1.23496 35.5779 1.21389 35.5678 1.20502C35.5745 1.19836 35.5745 1.1917 35.5757 1.18394C35.7064 1.28932 35.6953 1.49563 35.7948 1.62873C35.8283 1.67421 35.8395 1.67532 35.8898 1.68641C35.9356 1.65647 35.9625 1.63428 36.0183 1.65203C36.1402 1.68974 36.2117 1.8772 36.2699 1.83061C36.2934 1.81286 36.2397 1.73855 36.2117 1.66756C36.1872 1.60655 36.1 1.41133 36.1838 1.36918C36.1883 1.36696 36.1916 1.36585 36.1961 1.36363C36.176 1.31483 36.1614 1.26269 36.2196 1.23607C36.1715 1.18616 36.1268 1.13514 36.0787 1.08522C36.167 1.08522 36.2878 1.10297 36.3146 1.02754C36.3325 0.975409 36.3258 1.01201 36.3571 0.972081C36.3973 0.918839 36.3772 0.887781 36.3839 0.862269C36.3917 0.83232 36.4532 0.789061 36.4465 0.675921C36.4432 0.614915 36.4845 0.561672 36.4901 0.500666C36.4923 0.475154 36.4856 0.455188 36.4733 0.433004C36.5672 0.25442 36.2185 0.238892 36.1145 0.287697C36.0239 0.330956 35.9244 0.404164 35.8652 0.457406C35.7489 0.559454 35.6539 0.681467 35.5645 0.805699C35.5611 0.795716 35.5533 0.794607 35.5432 0.793498C35.5712 0.786842 35.5701 0.7336 35.5399 0.739146L35.5365 0.73471C35.5913 0.665938 35.6304 0.704761 35.6841 0.598276C35.6886 0.591621 35.6874 0.586075 35.6841 0.57942C35.6819 0.57942 35.6807 0.57942 35.6796 0.57942C35.6606 0.609369 35.6886 0.639317 35.5835 0.69145C35.5622 0.701433 35.5488 0.714744 35.5354 0.73471C35.5265 0.721399 35.5198 0.710307 35.5164 0.694778H35.5041C35.5019 0.711416 35.4963 0.722508 35.4873 0.735819C35.4739 0.716962 35.4594 0.704761 35.437 0.695887C35.3286 0.6493 35.3554 0.618242 35.3331 0.588294C35.3319 0.588294 35.3308 0.588294 35.3297 0.588294C35.3264 0.596058 35.3264 0.601604 35.3297 0.608259C35.3912 0.711416 35.4281 0.670375 35.4873 0.736928L35.484 0.741365C35.4527 0.736928 35.456 0.79017 35.484 0.794607C35.4739 0.796826 35.4661 0.799044 35.4639 0.809027C35.3666 0.689232 35.2638 0.572764 35.1408 0.477372C35.0782 0.427458 34.9742 0.359796 34.8803 0.322083C34.7741 0.278823 34.4264 0.314318 34.5326 0.487355C34.5215 0.509539 34.5159 0.529505 34.5203 0.555017C34.5293 0.616024 34.574 0.667048 34.5751 0.728054C34.5751 0.841194 34.64 0.881125 34.6489 0.909965C34.6578 0.935477 34.6388 0.967644 34.6835 1.01867C34.7171 1.05638 34.707 1.02089 34.7294 1.0708C34.7618 1.14512 34.8803 1.12072 34.9686 1.11628C34.9239 1.16841 34.8814 1.22165 34.8378 1.27379C34.8971 1.29819 34.887 1.35032 34.8691 1.40135C34.8736 1.40246 34.8781 1.40356 34.8825 1.40578C34.9686 1.4435 34.8937 1.64205 34.8736 1.70527C34.8501 1.77737 34.802 1.8539 34.8255 1.87054C34.887 1.9138 34.9463 1.72191 35.0648 1.67865C35.1207 1.65757 35.1475 1.67754 35.1956 1.70527C35.2459 1.69196 35.2559 1.69085 35.2872 1.64315C35.3767 1.5045 35.3532 1.29819 35.4762 1.18616C35.4784 1.19503 35.4784 1.20169 35.4851 1.20723C35.4762 1.21611 35.4873 1.23718 35.494 1.24495C35.4862 1.2516 35.4929 1.27601 35.503 1.27711C35.503 1.28599 35.5041 1.29153 35.5086 1.2993C35.5164 1.2993 35.5231 1.30041 35.5298 1.2993Z" fill="white"/>
</g>
</g>
</g>
<mask id="mask9_11_406" style="mask-type:luminance" maskUnits="userSpaceOnUse" x="5" y="7" width="7" height="7">
<path d="M5.26392 7.66724H11.56V13.6304H5.26392V7.66724Z" fill="white"/>
</mask>
<g mask="url(#mask9_11_406)">
<mask id="mask10_11_406" style="mask-type:luminance" maskUnits="userSpaceOnUse" x="4" y="5" width="9" height="10">
<path d="M5.51667 5.50647L12.5037 6.66227L11.1979 14.4356L4.21094 13.2798L5.51667 5.50647Z" fill="white"/>
</mask>
<g mask="url(#mask10_11_406)">
<mask id="mask11_11_406" style="mask-type:luminance" maskUnits="userSpaceOnUse" x="-3" y="2" width="38" height="38">
<path d="M2.67936 2.13452L34.4373 7.38886L28.9661 39.9498L-2.79175 34.6955L2.67936 2.13452Z" fill="white"/>
</mask>
<g mask="url(#mask11_11_406)">
<path fill-rule="evenodd" clip-rule="evenodd" d="M9.03582 11.2246C9.05035 11.2135 9.06153 11.2024 9.07718 11.1869C9.07047 11.1658 9.06376 11.1514 9.047 11.1358C9.06488 11.1136 9.03358 11.0571 9.00451 11.0571C9.00675 11.0316 8.98886 10.9717 8.95421 10.9695C8.95756 10.9462 8.94638 10.9328 8.93409 10.914C9.37343 10.9151 9.69763 11.3521 10.1202 11.4597C10.2644 11.4963 10.2879 11.4819 10.4086 11.4198C10.45 11.2834 10.4668 11.1968 10.6098 11.1392C10.9184 11.0149 11.3756 11.2789 11.4159 11.0892C11.4315 11.0149 11.2012 10.9517 11.0257 10.8541C10.8748 10.7687 10.3717 10.518 10.4701 10.2939C10.4757 10.284 10.4813 10.2729 10.4869 10.2629C10.3639 10.1974 10.2488 10.1142 10.3203 9.9645C10.1414 9.94121 9.96369 9.91126 9.7837 9.88908C9.96034 9.74488 10.2342 9.58294 10.1627 9.38439C10.1135 9.24906 10.1604 9.33558 10.156 9.20248C10.1504 9.02833 10.0576 8.99727 10.0274 8.93516C9.99276 8.86195 10.0453 8.67338 9.84295 8.45376C9.73452 8.33507 9.72781 8.15982 9.63726 8.02671C9.59925 7.97014 9.55341 7.9413 9.49193 7.91801C9.38349 7.40001 8.65349 7.94019 8.52604 8.21084C8.41425 8.4471 8.336 8.75768 8.30358 8.96399C8.24097 9.36331 8.25215 9.76485 8.28122 10.1664C8.25774 10.152 8.23762 10.1608 8.21638 10.1753C8.2611 10.1165 8.17278 10.01 8.11912 10.0721L8.10459 10.0688C8.10012 9.83805 8.24433 9.85358 8.17725 9.54855C8.17278 9.52747 8.16272 9.51749 8.14148 9.50973C8.13924 9.51195 8.13701 9.51306 8.13477 9.51527C8.14483 9.60956 8.25215 9.62398 8.12695 9.90239C8.10235 9.95896 8.09676 10.0078 8.10347 10.0688C8.06322 10.0577 8.03081 10.0455 7.99839 10.0189L7.97379 10.0399C7.99503 10.0754 8.00286 10.1098 8.00845 10.1509C7.9492 10.1353 7.89889 10.1331 7.83964 10.1497C7.54339 10.234 7.54339 10.1264 7.45172 10.1043C7.44949 10.1054 7.44725 10.1076 7.44501 10.1098C7.4506 10.1309 7.45843 10.142 7.47855 10.1497C7.77368 10.2584 7.77927 10.1142 8.00845 10.152L8.01068 10.1653C7.94025 10.2096 8.03528 10.3117 8.10012 10.2751C8.08223 10.2939 8.07105 10.3128 8.08223 10.3372C7.68425 10.254 7.28515 10.1863 6.87711 10.193C6.66694 10.1963 6.34386 10.2296 6.09233 10.3061C5.80503 10.3938 5.16334 11.0349 5.6664 11.2124C5.68094 11.2778 5.70329 11.3255 5.75472 11.371C5.87434 11.4775 6.04985 11.5085 6.1527 11.6328C6.34498 11.8613 6.54062 11.8369 6.60881 11.8801C6.66694 11.9178 6.68483 12.0132 6.85811 12.0432C6.99002 12.0665 6.90953 12.0077 7.03921 12.0753C7.22702 12.1729 7.42713 11.9267 7.59593 11.7736C7.5937 11.9522 7.59817 12.1319 7.59593 12.3105C7.75691 12.2606 7.82399 12.3848 7.87206 12.5157C7.88324 12.5113 7.89442 12.5079 7.9056 12.5035C8.1426 12.438 8.3237 12.966 8.38742 13.1258C8.4612 13.3121 8.49251 13.5462 8.56853 13.5417C8.76416 13.5284 8.56294 13.0426 8.73062 12.7575C8.80776 12.6255 8.89719 12.6211 9.03917 12.5989C9.11854 12.4891 9.13643 12.468 9.11966 12.3216C9.07047 11.8923 8.67808 11.513 8.73845 11.0826C8.75522 11.0981 8.76752 11.1092 8.79099 11.1103C8.78876 11.1436 8.84577 11.1702 8.87148 11.1713C8.86701 11.2002 8.91955 11.2379 8.94526 11.2235C8.95756 11.2423 8.97098 11.2512 8.9911 11.2601C9.00899 11.2479 9.0224 11.2379 9.03582 11.2246Z" fill="#B400F4"/>
</g>
</g>
</g>
<mask id="mask12_11_406" style="mask-type:luminance" maskUnits="userSpaceOnUse" x="4" y="8" width="1" height="4">
<path d="M4.11938 8.80298H4.69176V11.9265H4.11938V8.80298Z" fill="white"/>
</mask>
<g mask="url(#mask12_11_406)">
<mask id="mask13_11_406" style="mask-type:luminance" maskUnits="userSpaceOnUse" x="4" y="5" width="9" height="10">
<path d="M5.51667 5.50635L12.5037 6.66215L11.1979 14.4355L4.21094 13.2797L5.51667 5.50635Z" fill="white"/>
</mask>
<g mask="url(#mask13_11_406)">
<mask id="mask14_11_406" style="mask-type:luminance" maskUnits="userSpaceOnUse" x="-3" y="2" width="38" height="38">
<path d="M2.67936 2.1344L34.4373 7.38874L28.9661 39.9497L-2.79175 34.6953L2.67936 2.1344Z" fill="white"/>
</mask>
<g mask="url(#mask14_11_406)">
<path fill-rule="evenodd" clip-rule="evenodd" d="M3.44967 10.1373C3.44743 10.1262 3.4452 10.1174 3.44072 10.1052C3.42843 10.103 3.41837 10.1018 3.40607 10.1063C3.39936 10.0908 3.36135 10.0908 3.35353 10.1052C3.34011 10.0974 3.30434 10.0896 3.29316 10.1063C3.28198 10.0985 3.27192 10.0996 3.2585 10.1007C3.38259 9.87667 3.70344 9.83452 3.87895 9.64928C3.93932 9.58606 3.9382 9.56942 3.93932 9.48956C3.88007 9.43077 3.83982 9.39749 3.84988 9.30765C3.87224 9.11464 4.13943 8.95603 4.05223 8.8806C4.01757 8.85176 3.91919 8.95159 3.8197 9.01371C3.7325 9.06695 3.45861 9.2533 3.3703 9.13905C3.36582 9.1335 3.36247 9.12795 3.35912 9.1213C3.28981 9.16678 3.21379 9.20116 3.15566 9.12241C3.09305 9.20782 3.02709 9.2899 2.96449 9.37531C2.9399 9.24331 2.93207 9.05807 2.8091 9.03811C2.72414 9.0248 2.78339 9.02591 2.71184 8.99041C2.61905 8.94383 2.57769 8.98265 2.53633 8.98043C2.48826 8.9771 2.40553 8.89724 2.23337 8.93828C2.14058 8.96046 2.04668 8.91388 1.95277 8.92164C1.91253 8.92608 1.88458 8.9405 1.8544 8.96601C1.55367 8.87395 1.62858 9.40082 1.73366 9.5428C1.82533 9.66703 1.96507 9.7957 2.06345 9.87113C2.25349 10.0164 2.46702 10.124 2.68389 10.2227C2.66936 10.2305 2.66936 10.2438 2.67048 10.2594C2.65259 10.2194 2.5721 10.2338 2.58887 10.2793L2.58328 10.286C2.46143 10.2227 2.51061 10.1529 2.33175 10.1007C2.32057 10.0974 2.31274 10.0996 2.30156 10.1085C2.30268 10.1096 2.30268 10.1118 2.30268 10.1129C2.35522 10.1351 2.39323 10.0841 2.50279 10.2272C2.52515 10.256 2.54862 10.2727 2.58328 10.286C2.56539 10.3037 2.54974 10.317 2.52738 10.3259L2.53074 10.3448C2.55533 10.3437 2.57545 10.3492 2.59893 10.3581C2.57322 10.3847 2.55869 10.4091 2.55086 10.4446C2.51061 10.6198 2.45472 10.5888 2.41671 10.6298C2.41671 10.632 2.41671 10.6332 2.41783 10.6354C2.43012 10.6387 2.43907 10.6376 2.44801 10.6287C2.58775 10.5089 2.51509 10.4657 2.59893 10.3581L2.60676 10.3614C2.61011 10.4091 2.6906 10.3902 2.68948 10.347C2.69507 10.3603 2.70066 10.3725 2.71631 10.3736C2.56092 10.5533 2.41224 10.7385 2.30045 10.9493C2.24231 11.0569 2.16853 11.2321 2.13723 11.3819C2.10146 11.5549 2.25461 12.0651 2.48937 11.8577C2.52738 11.8688 2.55869 11.871 2.59669 11.8577C2.68613 11.8267 2.75209 11.7457 2.84599 11.7279C3.01927 11.6947 3.06175 11.5871 3.10423 11.5649C3.14 11.546 3.19478 11.5638 3.25962 11.4839C3.30881 11.4218 3.25627 11.4473 3.32781 11.3996C3.43178 11.332 3.36023 11.16 3.32781 11.0291C3.4206 11.0813 3.51563 11.1301 3.6073 11.1811C3.62742 11.0857 3.71126 11.0868 3.79287 11.099C3.79399 11.0924 3.79511 11.0846 3.79622 11.078C3.82864 10.9382 4.15508 10.9948 4.25681 11.0081C4.37419 11.0236 4.5061 11.0735 4.52511 11.0336C4.57318 10.9293 4.26351 10.8949 4.16178 10.7274C4.11483 10.6509 4.13831 10.6043 4.16626 10.5245C4.1316 10.4535 4.12601 10.4379 4.0444 10.4058C3.8074 10.3093 3.49886 10.4024 3.29092 10.2494C3.30322 10.2449 3.31328 10.2416 3.31999 10.2294C3.33788 10.2405 3.36694 10.2183 3.37477 10.2061C3.3893 10.2161 3.42396 10.2006 3.42284 10.1839C3.43625 10.1817 3.44408 10.1773 3.45526 10.1695C3.45414 10.1573 3.4519 10.1484 3.44967 10.1373Z" fill="white"/>
</g>
</g>
</g>
<mask id="mask15_11_406" style="mask-type:luminance" maskUnits="userSpaceOnUse" x="19" y="0" width="8" height="7">
<path d="M19.2864 0H26.1549V6.53104H19.2864V0Z" fill="white"/>
</mask>
<g mask="url(#mask15_11_406)">
<mask id="mask16_11_406" style="mask-type:luminance" maskUnits="userSpaceOnUse" x="15" y="-5" width="15" height="15">
<path d="M15.8354 3.18562L22.8839 -4.27051L29.6149 1.99432L22.5676 9.45045L15.8354 3.18562Z" fill="white"/>
</mask>
<g mask="url(#mask16_11_406)">
<mask id="mask17_11_406" style="mask-type:luminance" maskUnits="userSpaceOnUse" x="-13" y="-9" width="64" height="64">
<path d="M-12.6838 25.0725L18.5922 -8.01416L50.216 21.4155L18.9399 54.5022L-12.6838 25.0725Z" fill="white"/>
</mask>
<g mask="url(#mask17_11_406)">
<path fill-rule="evenodd" clip-rule="evenodd" d="M22.6156 5.55702C22.278 5.22869 22.5731 4.21376 22.6279 3.39406C22.4457 3.76231 22.2623 4.13168 22.0801 4.50105C20.7375 6.5542 21.2149 5.44166 20.5843 5.18765C18.2501 6.86811 19.8588 5.70122 20.4904 5.05566C20.4726 5.00241 20.4558 4.94917 20.4379 4.89704C20.2098 4.77059 19.7806 4.60643 20.1595 4.35907C19.9404 4.11172 19.8387 3.98416 20.2166 3.76231C19.6922 3.14116 21.9605 3.00472 22.2187 2.96146C21.5122 2.96479 20.998 3.03023 20.2993 3.17C19.3982 2.77512 20.0947 1.44961 19.7068 0.334849C20.2747 -0.28631 22.3842 1.65925 22.6201 2.71744C22.6335 2.69193 22.6458 2.67418 22.6581 2.65976C22.6682 2.60319 22.7028 2.54884 22.6648 2.52C22.6134 2.48007 22.6369 2.41906 22.676 2.39687C22.221 0.176231 21.5972 0.442442 21.2573 0.400292C22.2087 0.283825 22.411 1.22 22.7162 2.36249C22.7408 2.3159 22.8124 2.32478 22.8224 2.37691C23.1466 1.17119 23.5044 0.279388 24.364 0.419149C24.2433 0.477937 23.4194 0.0220507 22.8616 2.40908C22.894 2.43681 22.9074 2.49338 22.8571 2.52665C22.809 2.55882 22.847 2.60984 22.8526 2.68194C22.8638 2.69636 22.8739 2.71522 22.8839 2.74073C23.2271 1.71138 25.5334 -0.0799969 26.0353 0.593295C25.5356 1.66479 26.0923 3.05242 25.1566 3.35523C24.4747 3.14781 23.9705 3.03134 23.2674 2.95592C23.52 3.02469 25.7626 3.3874 25.179 3.9531C25.5311 4.21155 25.4171 4.32801 25.1745 4.55207C25.5267 4.83714 25.0817 4.95694 24.8425 5.05898C24.8202 5.11001 24.7967 5.16103 24.7743 5.21206C25.3366 5.91862 26.819 7.2397 24.667 5.33518C24.013 5.52485 24.3752 6.67954 23.2484 4.50216C23.1053 4.11726 22.9622 3.78006 22.8191 3.39517C22.7911 4.1816 22.9924 5.3374 22.6156 5.55702Z" fill="#B400F4"/>
</g>
</g>
</g>
</svg>
