<svg width="32" height="21" viewBox="0 0 32 21" fill="none" xmlns="http://www.w3.org/2000/svg">
<path d="M11.0497 12.8645C10.8835 12.7731 10.7196 12.6846 10.5608 12.6003C10.2217 12.4541 9.91167 12.3009 9.58896 12.211C8.96143 11.9995 8.37639 11.8962 7.87482 11.7929C7.36952 11.6995 6.94098 11.618 6.58026 11.5456C6.23222 11.4697 5.95348 11.4029 5.73586 11.3411C5.87299 11.4374 6.02428 11.5491 6.20017 11.6573C6.30749 11.7093 6.42077 11.7627 6.54151 11.8217C6.66597 11.8786 6.79416 11.9131 6.92682 11.9665C7.06544 12.0129 7.22493 12.0564 7.37995 12.1063C7.46268 12.1295 7.54615 12.1541 7.63036 12.1801C7.67285 12.1934 7.71682 12.2054 7.75855 12.2194L7.79209 12.2279L7.80103 12.2321C7.80103 12.2321 7.80849 12.2342 7.80923 12.2342L7.81147 12.2349L7.87705 12.2525C8.05517 12.2988 8.23553 12.3466 8.42409 12.3972C8.61041 12.4443 8.80642 12.5068 9.00019 12.5384C9.39295 12.6122 9.79466 12.7057 10.2374 12.7577C10.4997 12.8005 10.7732 12.8329 11.0497 12.8645ZM12.6491 15.2451C11.8509 14.7764 11.0042 14.5614 10.2187 14.4701C9.34898 14.3717 8.54482 14.3717 7.85022 14.3907C7.1504 14.4237 6.54002 14.4869 6.01161 14.553C5.11057 14.6668 4.44727 14.768 3.97924 14.8263C3.97476 14.8263 3.97402 14.8284 3.96806 14.8305C3.88011 14.8558 3.78546 14.884 3.68336 14.9247C3.67069 14.9296 3.65653 14.9359 3.64088 14.9409C4.08357 14.9753 4.5926 14.9563 5.14709 14.9149C5.56966 14.8818 6.0459 14.8495 6.52511 14.8474C6.99837 14.8446 7.491 14.8425 7.99481 14.8404C8.47477 14.8425 8.9428 14.8446 9.39593 14.8474C9.62101 14.8509 9.84385 14.8544 10.0592 14.858C10.2806 14.8699 10.4982 14.8797 10.7106 14.8903C11.4305 14.9359 12.0968 15.0617 12.6491 15.2451ZM13.2878 16.5914C13.4816 16.6413 13.6806 16.7067 13.8721 16.7959C11.4305 14.5685 6.89179 15.8227 3.73255 16.498C3.73776 16.5619 3.71764 16.6308 3.65727 16.6919C3.36661 16.9821 3.03944 17.2203 2.68766 17.4213C4.94885 17.3096 7.18245 16.9645 9.44587 16.8093C10.8053 16.7172 12.2913 16.6694 13.653 16.9842C13.5106 16.9252 13.3616 16.8774 13.2155 16.8409C12.7825 16.7313 12.348 16.6877 11.9314 16.6694C11.5148 16.6498 11.116 16.6561 10.7345 16.6652C10.3521 16.6743 9.98843 16.6828 9.64486 16.6898C8.27056 16.7221 7.19885 16.7411 6.37904 16.7397C5.55923 16.7411 4.99356 16.7376 4.63359 16.7292C4.27288 16.7193 4.11786 16.7053 4.11786 16.6856C4.11786 16.6694 4.27288 16.6498 4.63359 16.628C4.99356 16.6055 5.55848 16.583 6.37531 16.557C7.19363 16.5296 8.2646 16.4945 9.63964 16.4523C9.98247 16.4411 10.3447 16.4291 10.7285 16.4165C11.1086 16.4066 11.5155 16.3982 11.944 16.4158C12.3718 16.4326 12.8227 16.4755 13.2878 16.5914ZM13.8959 15.4981C14.0778 15.6527 14.2507 15.8206 14.4191 16.0005C14.2321 15.6007 13.9951 15.2381 13.726 14.9198C13.5576 14.7195 13.378 14.5361 13.1961 14.3633C12.5857 14.2277 11.9679 14.1806 11.3456 14.1714C11.3501 14.1736 11.3523 14.1736 11.353 14.1736C11.476 14.2073 11.5982 14.248 11.7249 14.2853C12.2273 14.4272 12.7191 14.6781 13.2028 14.9788C13.4354 15.139 13.6634 15.3161 13.8959 15.4981ZM14.8521 18.1127C14.8164 18.0438 14.7821 17.9764 14.7456 17.9117C13.0091 17.0735 10.8157 17.1943 8.93759 17.3686C6.45729 17.5969 3.99936 17.9553 1.50118 17.9736C1.32007 18.2132 1.15313 18.4626 1.00035 18.7177C1.63235 18.7676 2.29416 18.7296 2.92094 18.7416C4.49795 18.7725 6.07496 18.802 7.65123 18.8294C9.90198 18.8688 12.1565 18.9257 14.4072 18.9468C14.4191 18.9053 14.431 18.866 14.446 18.8259C12.6386 18.606 11.116 18.5793 9.86993 18.5744C8.59178 18.5786 7.59608 18.5835 6.83515 18.5849C6.07496 18.5884 5.5488 18.5786 5.21491 18.5645C4.88028 18.5519 4.7342 18.535 4.7342 18.5174C4.7342 18.5006 4.88028 18.4823 5.21491 18.464C5.5488 18.4458 6.07198 18.4282 6.83142 18.4022C7.59161 18.3776 8.58879 18.3453 9.86993 18.3347C11.1362 18.3277 12.6878 18.3453 14.5458 18.5765C14.5518 18.5624 14.5615 18.547 14.5689 18.5315C13.1596 18.313 11.9604 18.268 10.9677 18.2385C9.90421 18.2132 9.06801 18.2146 8.43378 18.2012C7.16084 18.1766 6.67641 18.1443 6.67641 18.1078C6.67641 18.0734 7.16084 18.0403 8.43378 18.0164C9.06876 18.008 9.90123 17.9869 10.9729 17.9989C11.8732 18.0143 12.9487 18.0488 14.1993 18.216C13.8967 18.1106 13.5852 18.06 13.2945 18.0193C12.825 17.9616 12.38 17.9349 11.9917 17.8956C11.2107 17.8302 10.6018 17.7494 10.1367 17.7403C9.20216 17.6904 8.84592 17.6489 8.84592 17.6131C8.84592 17.5766 9.20216 17.5548 10.1434 17.5576C10.616 17.5442 11.2271 17.604 12.0156 17.6581C12.4106 17.6904 12.8399 17.7108 13.3295 17.7684C13.574 17.8007 13.8304 17.8387 14.0949 17.9124C14.3237 17.9687 14.554 18.0663 14.7783 18.197C14.8022 18.1675 14.826 18.1401 14.8521 18.1127ZM15.2158 16.5914C15.2501 16.0623 15.2419 15.5557 15.1875 15.0772C14.9013 14.7392 14.4773 14.4251 13.969 14.1736C13.8311 14.1047 13.6895 14.0429 13.5427 13.9817C13.7499 14.1714 13.9518 14.3752 14.1456 14.6008C14.4951 15.0111 14.8097 15.4889 15.0303 16.0363C15.104 16.2176 15.1659 16.4017 15.2158 16.5914ZM16.3106 19.4119C16.1698 19.0564 16.0282 18.6861 15.7435 18.4528C15.3082 18.0951 15.0347 18.7198 14.9065 19.2552C15.3395 19.081 15.8352 19.2342 16.3106 19.4119ZM22.9794 17.4845C23.4325 17.4873 23.8842 17.4944 24.3351 17.5049C23.8685 17.441 23.4012 17.3911 22.928 17.37C21.7147 17.3131 20.4313 17.2653 19.2321 17.4873C18.6844 17.5892 18.1835 17.7635 17.6969 17.9764C19.446 17.7059 21.1915 17.4754 22.9794 17.4845ZM26.8616 13.6051C26.7699 13.532 26.6782 13.4603 26.5866 13.3901C26.1528 13.0472 25.7206 12.719 25.2324 12.452C24.7204 12.1731 24.2971 12.2749 23.7299 12.3009C23.4229 12.3164 23.1434 12.3403 22.9205 12.3459C22.682 12.3803 22.4197 12.4176 22.1238 12.4626C21.6834 12.5314 21.1736 12.6143 20.602 12.7394C20.0311 12.8736 19.3872 13.0345 18.7186 13.317C18.0539 13.5981 17.3458 13.9958 16.7884 14.6352C16.5871 14.8594 16.4157 15.1165 16.2719 15.399C16.1877 15.8452 16.0997 16.3104 16.0081 16.7945C16.33 16.3792 16.6788 15.9885 17.1252 15.6794C17.9659 15.1004 18.8908 14.6422 19.8843 14.3443C21.6074 13.8257 23.4683 13.6873 25.2562 13.6501C25.5395 13.6318 25.8592 13.6227 26.2028 13.617C26.4137 13.6135 26.6343 13.61 26.8616 13.6051ZM29.1824 17.8387C28.7658 17.6096 28.3559 17.3721 28.0824 16.9821C28.054 16.9449 28.0414 16.9069 28.0384 16.8683C28.0324 16.8584 28.0272 16.8479 28.0235 16.836C27.8811 16.3343 27.6956 15.848 27.501 15.366C25.3315 14.9655 23.0502 14.9163 20.8688 15.2803C19.1032 15.5761 17.3622 16.1572 16.2749 17.5464C16.5208 17.3517 16.7593 17.1543 17.0045 16.9709C17.4368 16.6828 17.8541 16.4657 18.2678 16.2605C19.0861 15.8536 19.8917 15.5669 20.6445 15.4503C22.1216 15.1938 23.2991 15.0849 24.1979 15.1116C25.0968 15.1369 25.7131 15.2486 26.0917 15.3561C26.4696 15.47 26.6268 15.5276 26.6216 15.5459C26.6141 15.562 26.4457 15.5367 26.0656 15.4545C25.6878 15.3779 25.0789 15.295 24.1957 15.2943C23.3133 15.2943 22.1574 15.4159 20.6907 15.685C19.9655 15.8037 19.1979 16.0827 18.3915 16.4867C17.9898 16.6877 17.5635 16.9118 17.1707 17.1746C16.9657 17.3271 16.7653 17.4944 16.5521 17.6651C17.3086 17.24 18.03 16.8613 18.735 16.5795C19.1762 16.3982 19.6145 16.2654 20.0363 16.1586C20.4604 16.0658 20.8688 15.9914 21.2548 15.9548C22.0322 15.8705 22.7253 15.8656 23.3357 15.8677C23.9438 15.8705 24.4759 15.8726 24.9388 15.8902C25.8614 15.9246 26.4971 16.0279 26.8929 16.1192C27.2812 16.2211 27.4436 16.283 27.4436 16.2998C27.4287 16.361 26.7632 16.0982 24.9321 16.0729C24.4737 16.0694 23.946 16.0757 23.3357 16.0827C22.7283 16.0897 22.0426 16.1017 21.2876 16.1916C20.9075 16.231 20.511 16.3069 20.1011 16.3982C19.695 16.505 19.2709 16.635 18.8416 16.8135C18.8364 16.8156 18.8304 16.8177 18.8252 16.8205C19.7002 16.5437 20.5185 16.3757 21.2645 16.3125C22.7074 16.174 23.8365 16.3125 24.6772 16.4523C24.8873 16.4917 25.0819 16.5275 25.2592 16.5598C25.4351 16.6055 25.5961 16.6448 25.7429 16.6807C25.886 16.7193 26.0179 16.7516 26.1357 16.7819C26.2497 16.8205 26.3533 16.8514 26.4427 16.8809C26.7967 16.9983 26.9465 17.058 26.9398 17.0756C26.9346 17.0917 26.7729 17.0629 26.4114 16.9772C26.322 16.9568 26.2177 16.9301 26.1007 16.902C25.9829 16.8774 25.8517 16.8514 25.7064 16.8226C25.5596 16.791 25.3986 16.7587 25.2242 16.7221C25.0461 16.6947 24.8538 16.6652 24.6459 16.6329C23.8126 16.5169 22.6992 16.4017 21.2914 16.55C20.6415 16.6118 19.9342 16.7537 19.177 16.9793C20.2137 16.8388 21.2571 16.791 22.3042 16.8275C24.3187 16.8978 26.237 17.3932 28.1971 17.7305C28.5258 17.7614 28.853 17.7972 29.1824 17.8387ZM23.7642 18.8625C25.9613 18.8625 28.1919 18.8625 30.3599 18.8625C30.2235 18.7367 30.0834 18.6137 29.9456 18.49C29.9426 18.4879 29.9381 18.49 29.9329 18.49C29.3903 18.4366 28.8507 18.3523 28.3156 18.256C26.5448 18.0734 24.7621 18.0038 22.9794 18.001C20.8062 17.9968 18.697 18.339 16.5633 18.6762C16.5968 18.743 16.6304 18.8119 16.6602 18.8807C17.1707 18.8625 17.5404 18.8554 17.9607 18.828C18.4034 18.7915 18.8103 18.7549 19.2128 18.7226C19.6145 18.6854 19.9961 18.6488 20.3605 18.6137C20.7272 18.5884 21.0752 18.5645 21.4039 18.542C21.5686 18.5266 21.7288 18.528 21.8846 18.5266C22.0396 18.5245 22.1917 18.5245 22.3377 18.5224C22.6314 18.5217 22.9086 18.5195 23.168 18.5174C23.6867 18.5167 24.1398 18.5104 24.5311 18.5224C25.3121 18.5378 25.8517 18.5554 26.196 18.5722C26.5419 18.5898 26.6894 18.6081 26.6894 18.6264C26.6894 18.6432 26.5419 18.6587 26.196 18.6727C25.8517 18.6861 25.3121 18.698 24.5311 18.7058C24.1383 18.7058 23.6882 18.7226 23.171 18.7332C22.9138 18.7381 22.6373 18.743 22.3467 18.75C22.2013 18.7542 22.0508 18.7571 21.895 18.7592C21.7393 18.762 21.5813 18.762 21.4188 18.7795C21.2228 18.795 21.0178 18.8119 20.8084 18.828C21.7967 18.8343 22.7856 18.8625 23.7642 18.8625ZM31.2081 19.653C31.0955 19.5841 30.9711 19.5258 30.8615 19.4583C30.8235 19.4358 30.7959 19.4084 30.7758 19.3796C28.4945 19.3796 26.3414 19.3796 24.1219 19.3796C21.7542 19.3796 19.3052 19.2138 16.9575 19.5518C16.9747 19.5862 16.9918 19.6192 17.0105 19.6515C17.0187 19.6656 17.0261 19.6811 17.0321 19.6951C21.7564 19.7 26.4845 19.8441 31.2081 19.653ZM0.559888 19.3761C0.559888 19.3761 0.557652 19.3796 0.555416 19.3796C0.559888 19.3796 0.563615 19.3775 0.566596 19.374C0.581501 19.374 0.63069 19.3796 0.63069 19.3796C0.634416 19.3796 0.638888 19.3803 0.641869 19.3803C0.667954 19.3775 0.692548 19.3761 0.722359 19.3796C1.43634 19.4689 2.20249 19.4169 2.92094 19.4309C4.49795 19.4618 6.07496 19.4913 7.65123 19.5194C9.83863 19.5581 12.0283 19.6115 14.2157 19.6333C14.2157 19.5792 14.2157 19.5194 14.2157 19.4604C12.0283 19.4393 9.83863 19.3866 7.65123 19.3466C6.07496 19.3185 4.49795 19.2911 2.92094 19.2602C2.20845 19.2461 1.44826 19.296 0.738755 19.211C0.718633 19.2243 0.694784 19.2363 0.670935 19.2461C0.661246 19.2566 0.653048 19.2686 0.641869 19.2798C0.597898 19.3171 0.583737 19.3599 0.566596 19.374H0.565105C0.563615 19.374 0.561379 19.3775 0.559888 19.3761ZM6.40438 15.4138C5.98031 15.4131 5.5801 15.4299 5.17839 15.4433C4.31163 15.477 3.48586 15.4496 2.84045 15.2009L2.34409 15.0076L2.8315 14.8355C3.38525 14.6408 3.85328 14.5734 4.18121 14.5389C4.1894 14.5389 4.19462 14.5389 4.20207 14.5389C4.63732 14.4385 5.20969 14.319 5.95125 14.1911C6.48338 14.1019 7.1042 14.0133 7.82488 13.9613C8.19454 13.9431 8.59103 13.929 9.01062 13.9311C9.03447 13.915 9.0613 13.9044 9.09782 13.9044C10.3134 13.8925 11.5304 13.7899 12.7229 13.9613C12.7139 13.9529 12.702 13.9431 12.6916 13.9339C12.5418 13.8173 12.3897 13.707 12.2407 13.6023C12.0081 13.5587 11.7711 13.5243 11.5274 13.5039C11.0497 13.4498 10.5861 13.3999 10.1382 13.3191C9.69032 13.258 9.25657 13.1484 8.84144 13.0542C8.63202 13.0106 8.44868 12.9418 8.26236 12.8849C8.07828 12.8258 7.89941 12.7675 7.72576 12.712L7.66167 12.6916L7.61769 12.6762L7.58639 12.6642C7.54466 12.6481 7.50292 12.6333 7.46268 12.62C7.37995 12.5883 7.30244 12.5567 7.2227 12.5286C7.06246 12.4654 6.91042 12.4106 6.76062 12.3459C6.61231 12.2749 6.46027 12.211 6.34177 12.1407C6.28141 12.1042 6.22477 12.0677 6.1711 12.0339C6.14278 12.0157 6.11744 11.9995 6.09061 11.9812L6.05037 11.958L6.03099 11.944L6.02578 11.9405L6.01385 11.9335C6.00938 11.9306 6.00118 11.9236 6.00118 11.9236C5.79772 11.7599 5.65313 11.6046 5.5406 11.4859C5.48545 11.4275 5.43551 11.3734 5.39154 11.3256C5.34608 11.2807 5.30658 11.2413 5.27528 11.2083C5.26037 11.1928 5.24919 11.1795 5.23876 11.1661C5.14411 11.1254 5.10312 11.098 5.10834 11.0811C5.12026 11.0467 5.32074 11.0614 5.76269 11.1387C5.98777 11.1704 6.27544 11.2097 6.63467 11.2596C6.99613 11.3067 7.42914 11.3636 7.94264 11.4303C8.45763 11.5133 9.05981 11.5976 9.73206 11.8049C10.0726 11.8892 10.4177 12.0445 10.7874 12.1977C11.1362 12.3733 11.5021 12.5609 11.8762 12.7851C12.0014 12.8575 12.1251 12.9355 12.2533 13.0135C12.2727 13.0177 12.2951 13.0205 12.3167 13.0268C12.5544 13.0704 12.7847 13.128 13.0076 13.1947C13.4532 13.3282 13.8706 13.4997 14.2447 13.7049C14.5376 13.863 14.8059 14.0457 15.0414 14.2459C15.0049 14.1026 14.9669 13.9613 14.9334 13.8236C14.8529 13.5981 14.7754 13.3788 14.7001 13.1666C14.6032 12.9586 14.5093 12.7591 14.4191 12.563C14.3237 12.3663 14.2104 12.178 14.1136 11.9946C13.7074 11.2589 13.3124 10.6152 12.9688 10.0419C12.6223 9.4692 12.3241 8.96679 12.0678 8.52763C11.0646 6.76253 10.8388 6.02051 10.8947 5.99732C10.9789 5.9636 11.3262 6.64378 12.4061 8.34564C12.6804 8.77005 12.9979 9.26121 13.3616 9.82264C13.7238 10.3897 14.1352 11.027 14.5592 11.7697C14.6636 11.958 14.7783 12.1436 14.8819 12.3466C14.9811 12.5539 15.0854 12.7661 15.1875 12.9853C15.2717 13.2123 15.3612 13.4428 15.4461 13.6824C15.508 13.929 15.5862 14.1778 15.6377 14.4385C15.6772 14.6394 15.707 14.8446 15.7301 15.0547C15.7457 15.08 15.7562 15.1074 15.7688 15.1334C16.0118 13.87 16.2309 12.7556 16.4247 11.7732C16.7399 10.1775 16.9896 8.93377 17.1916 7.98868C17.5948 6.09218 17.796 5.38249 17.8705 5.39444C17.9458 5.40849 17.878 6.14207 17.5732 8.05122C17.4219 9.00544 17.2117 10.2548 16.9262 11.8548C16.7981 12.5588 16.655 13.336 16.4977 14.1827C17.1148 13.5412 17.8489 13.1484 18.5174 12.8792C19.2389 12.5904 19.9103 12.438 20.5043 12.3213C21.0976 12.2096 21.6208 12.1457 22.0732 12.0993C22.451 12.0613 22.7782 12.0374 23.0614 12.0199C23.396 11.9995 23.6189 11.9559 23.958 11.9833C24.2851 12.0079 24.619 11.963 24.9455 11.9405C25.0081 11.9377 25.1303 11.906 25.181 11.911C25.8353 11.9784 26.5009 12.5659 26.9831 12.9432C27.2864 13.1828 27.5718 13.4154 27.8498 13.6051L28.5169 14.0618L27.7082 14.1209C27.6374 14.1258 27.5689 14.1258 27.4966 14.1293C27.4623 14.144 27.422 14.1532 27.3736 14.1532C25.181 14.1532 22.7804 14.0843 20.605 14.6767C20.2114 14.7856 19.8232 14.9064 19.4445 15.0484C19.8627 14.9359 20.2904 14.8474 20.722 14.7814C23.0517 14.4321 25.4038 14.4448 27.7216 14.8797C27.7917 14.8945 27.8409 14.9247 27.8729 14.9662C27.9154 14.9936 27.9519 15.035 27.9735 15.0891C28.1919 15.6175 28.3954 16.1495 28.5534 16.6975C28.5549 16.7067 28.5549 16.7151 28.5571 16.7242C28.923 17.2407 29.6497 17.4501 30.1632 17.8063C30.2623 17.8773 30.2914 17.9785 30.2772 18.0712C30.5604 18.3347 30.8496 18.5884 31.1104 18.873C31.2341 18.9032 31.2975 19.0037 31.302 19.1084C31.5643 19.2566 31.8371 19.4035 31.9675 19.679C32.0279 19.8075 32.0092 19.9565 31.8684 20.0338C31.8647 20.0359 31.8594 20.0359 31.8565 20.0394C31.8132 20.1034 31.7402 20.1497 31.6381 20.1547C26.7677 20.3753 21.8913 20.2165 17.0179 20.2116C16.9292 20.2116 16.8614 20.1792 16.8189 20.1308C16.7906 20.1308 16.7638 20.1273 16.7325 20.1174C16.1698 19.9354 15.3522 19.3712 14.8655 19.9354C14.8573 19.9467 14.8477 19.953 14.8387 19.9621C14.8126 20.0668 14.7292 20.1568 14.5816 20.1547C12.2712 20.1357 9.96011 20.0767 7.65123 20.0359C6.07496 20.0085 4.49795 19.9804 2.92094 19.9481C2.20249 19.9333 1.43634 19.9853 0.722359 19.8961C0.713416 19.894 0.705218 19.8926 0.69702 19.8912C0.676897 19.894 0.655284 19.8961 0.63069 19.8961C0.37804 19.8912 0.0650219 19.7872 0.0113617 19.5201C-0.0363362 19.2826 0.0702388 19.069 0.254323 18.9095C0.269974 18.8955 0.285625 18.8849 0.302021 18.8751C0.307238 18.8463 0.316927 18.8189 0.333323 18.7894C0.571067 18.3727 0.820736 17.9623 1.12481 17.5836C1.16655 17.5323 1.21797 17.5007 1.27536 17.4852C1.28654 17.4782 1.30219 17.4712 1.31784 17.4648C2.10411 17.1908 2.81138 16.8823 3.16092 16.1375C3.64609 16.1073 4.20953 15.8677 4.69694 15.7623C5.22534 15.6485 5.8633 15.4138 6.40438 15.4138Z" fill="white"/>
<mask id="mask0_11_406" style="mask-type:luminance" maskUnits="userSpaceOnUse" x="19" y="7" width="5" height="4">
<path d="M19.7261 7.73523H23.5419V10.9731H19.7261V7.73523Z" fill="white"/>
</mask>
<g mask="url(#mask0_11_406)">
<mask id="mask1_11_406" style="mask-type:luminance" maskUnits="userSpaceOnUse" x="18" y="6" width="7" height="6">
<path d="M23.2996 6.47607L24.6366 10.3225L20.1493 11.7088L18.8123 7.86244L23.2996 6.47607Z" fill="white"/>
</mask>
<g mask="url(#mask1_11_406)">
<mask id="mask2_11_406" style="mask-type:luminance" maskUnits="userSpaceOnUse" x="4" y="3" width="27" height="26">
<path d="M24.6008 3.86353L30.8843 21.9403L11.0323 28.0753L4.74805 9.99851L24.6008 3.86353Z" fill="white"/>
</mask>
<g mask="url(#mask2_11_406)">
<path fill-rule="evenodd" clip-rule="evenodd" d="M21.35 9.70341C21.3604 9.70762 21.3701 9.71113 21.3835 9.71465C21.3932 9.70481 21.3992 9.69778 21.4029 9.68514C21.4208 9.68795 21.4439 9.65633 21.435 9.64087C21.4499 9.63454 21.4782 9.60925 21.4692 9.59028C21.4834 9.58536 21.4879 9.57622 21.4946 9.56498C21.622 9.79475 21.4715 10.0857 21.5333 10.3358C21.5542 10.4222 21.5699 10.43 21.6392 10.4756C21.7279 10.4602 21.7815 10.4447 21.8553 10.5037C22.0148 10.6309 21.9991 10.9429 22.1176 10.912C22.1638 10.8993 22.1325 10.7616 22.1363 10.6429C22.14 10.5403 22.1348 10.2079 22.289 10.1974C22.2965 10.1974 22.304 10.1974 22.3114 10.1974C22.3122 10.1145 22.3248 10.0316 22.4307 10.0273C22.3912 9.92756 22.3561 9.82637 22.3166 9.72589C22.4493 9.77859 22.6192 9.87696 22.7094 9.78491C22.7712 9.72167 22.7362 9.77016 22.8093 9.73081C22.9061 9.67951 22.8957 9.6233 22.9225 9.59028C22.9531 9.55163 23.0738 9.52704 23.1387 9.3605C23.1737 9.27056 23.2698 9.21857 23.3183 9.13424C23.3392 9.09911 23.3421 9.06749 23.3369 9.02814C23.5963 8.82858 23.0813 8.596 22.892 8.60373C22.7273 8.61076 22.5298 8.65573 22.4046 8.69508C22.1631 8.77307 21.941 8.88972 21.7241 9.0162C21.7256 8.99933 21.7144 8.9916 21.7003 8.98458C21.7465 8.99231 21.78 8.91642 21.7301 8.90518L21.7279 8.89674C21.8553 8.83069 21.8888 8.91009 22.0409 8.79064C22.0506 8.78291 22.0535 8.77448 22.0521 8.76183C22.0506 8.76113 22.0483 8.76043 22.0468 8.75972C21.9969 8.79064 22.02 8.85107 21.8277 8.86231C21.7882 8.86512 21.7599 8.87566 21.7279 8.89604C21.7219 8.87215 21.7197 8.85177 21.7249 8.82718L21.7055 8.82015C21.6921 8.84123 21.6749 8.85529 21.6541 8.86934C21.6451 8.8335 21.6317 8.8068 21.6049 8.7801C21.4715 8.6487 21.5318 8.61919 21.5184 8.56438C21.5162 8.56368 21.5147 8.56298 21.5125 8.56227C21.502 8.57141 21.4983 8.57914 21.4998 8.59108C21.5251 8.77588 21.6071 8.73864 21.6533 8.86934L21.6459 8.87426C21.6012 8.84966 21.5713 8.92766 21.6101 8.95155C21.5944 8.94734 21.581 8.94663 21.5699 8.95928C21.502 8.7281 21.423 8.50044 21.3008 8.28823C21.2382 8.17932 21.1257 8.01982 21.0094 7.9095C20.8767 7.78302 20.3305 7.62421 20.3774 7.9362C20.3454 7.9622 20.3245 7.98749 20.3141 8.02614C20.2887 8.11889 20.3223 8.21937 20.2835 8.30721C20.2105 8.47093 20.2813 8.56649 20.2768 8.61427C20.2723 8.65503 20.2239 8.69086 20.2574 8.78994C20.2835 8.86583 20.2924 8.8075 20.2924 8.89393C20.2924 9.01901 20.4885 9.05555 20.6233 9.10192C20.5227 9.1497 20.4236 9.2017 20.3223 9.25018C20.3968 9.32045 20.3468 9.39002 20.2872 9.45115C20.2932 9.45607 20.2984 9.46028 20.3044 9.4652C20.4095 9.5713 20.1665 9.81232 20.0949 9.88961C20.0122 9.97955 19.89 10.0611 19.9146 10.0997C19.9794 10.1981 20.1926 9.95918 20.4013 9.96761C20.4981 9.97182 20.5265 10.0168 20.5801 10.085C20.6643 10.0962 20.6815 10.0997 20.759 10.0505C20.9848 9.90577 21.0839 9.5959 21.3433 9.50877C21.3396 9.52212 21.3366 9.53125 21.3433 9.5439C21.3232 9.55233 21.3254 9.58887 21.3321 9.60292C21.315 9.60855 21.309 9.64649 21.3239 9.65562C21.3172 9.66757 21.3165 9.6767 21.3172 9.69005C21.3291 9.69638 21.3388 9.69989 21.35 9.70341Z" fill="white"/>
</g>
</g>
</g>
<mask id="mask3_11_406" style="mask-type:luminance" maskUnits="userSpaceOnUse" x="21" y="1" width="4" height="3">
<path d="M21.6348 1.43921H24.3059V3.95757H21.6348V1.43921Z" fill="white"/>
</mask>
<g mask="url(#mask3_11_406)">
<mask id="mask4_11_406" style="mask-type:luminance" maskUnits="userSpaceOnUse" x="21" y="0" width="5" height="5">
<path d="M25.3001 2.01888L24.2723 4.68129L21.1802 3.61956L22.2079 0.957153L25.3001 2.01888Z" fill="white"/>
</mask>
<g mask="url(#mask4_11_406)">
<mask id="mask5_11_406" style="mask-type:luminance" maskUnits="userSpaceOnUse" x="8" y="-4" width="20" height="18">
<path d="M27.1917 1.12224L22.4443 13.4196L8.86304 8.75953L13.6105 -3.53784L27.1917 1.12224Z" fill="white"/>
</mask>
<g mask="url(#mask5_11_406)">
<path fill-rule="evenodd" clip-rule="evenodd" d="M22.7827 2.97312C22.7865 2.98015 22.7902 2.98577 22.7962 2.9928C22.8058 2.99139 22.8118 2.99069 22.82 2.98436C22.8282 2.9935 22.855 2.98577 22.8573 2.97382C22.8684 2.97663 22.8953 2.97382 22.899 2.96047C22.9087 2.96328 22.9154 2.96047 22.9243 2.95696C22.8893 3.13192 22.6762 3.22889 22.5964 3.3891C22.5696 3.44391 22.5741 3.45445 22.5912 3.50715C22.6463 3.53455 22.6829 3.5479 22.6963 3.60903C22.7261 3.74184 22.5763 3.90486 22.6545 3.93507C22.6851 3.94702 22.7306 3.85989 22.7865 3.79735C22.8349 3.74324 22.9825 3.56125 23.0712 3.61747C23.0749 3.62098 23.0786 3.62379 23.0831 3.6266C23.1211 3.58233 23.1651 3.54298 23.2247 3.58304C23.2485 3.51277 23.2754 3.44391 23.2985 3.37434C23.3469 3.45585 23.3954 3.57741 23.4863 3.56406C23.5481 3.55423 23.5071 3.56687 23.5653 3.5746C23.6406 3.58585 23.6607 3.55142 23.6897 3.54369C23.724 3.53596 23.8015 3.57109 23.9118 3.50645C23.9707 3.47201 24.0475 3.48255 24.1116 3.45656C24.1384 3.44602 24.1548 3.42985 24.1697 3.40667C24.4007 3.40315 24.2256 3.07009 24.119 2.99842C24.0266 2.93588 23.8984 2.88107 23.8127 2.85226C23.6458 2.79745 23.4721 2.77146 23.297 2.75248C23.3052 2.74405 23.3029 2.73492 23.2985 2.72578C23.3201 2.74827 23.373 2.72086 23.3499 2.69487L23.3529 2.68924C23.4527 2.7047 23.4349 2.76092 23.5712 2.7574C23.5802 2.7574 23.5854 2.75389 23.5906 2.74616C23.5899 2.74546 23.5891 2.74405 23.5884 2.74335C23.5474 2.73984 23.5325 2.782 23.4229 2.71103C23.4006 2.69627 23.3797 2.69065 23.3529 2.68924C23.3611 2.67379 23.3685 2.66114 23.3827 2.6506L23.3752 2.63865C23.3588 2.64498 23.3432 2.64568 23.3253 2.64427C23.3365 2.62179 23.3409 2.60211 23.3387 2.57682C23.3253 2.45244 23.3723 2.46088 23.3886 2.42574C23.3879 2.42434 23.3879 2.42364 23.3872 2.42223C23.3775 2.42293 23.3715 2.42504 23.367 2.43277C23.297 2.54239 23.3588 2.55574 23.3246 2.64427H23.3186C23.3052 2.61265 23.2538 2.64287 23.2642 2.67168C23.2575 2.66325 23.2508 2.65692 23.2388 2.65973C23.3059 2.50725 23.3663 2.35267 23.3954 2.18894C23.411 2.10462 23.4214 1.97323 23.408 1.86712C23.3931 1.74486 23.1673 1.4399 23.0518 1.62751C23.0227 1.62892 22.9996 1.63384 22.9765 1.6507C22.9214 1.69075 22.8938 1.75821 22.8327 1.79053C22.7194 1.84956 22.7149 1.92966 22.6903 1.95355C22.6695 1.97393 22.627 1.97393 22.6009 2.04068C22.5808 2.09198 22.6121 2.06457 22.5726 2.11095C22.5159 2.1784 22.6061 2.27678 22.659 2.35618C22.5823 2.34213 22.5047 2.33018 22.428 2.31542C22.4369 2.38358 22.378 2.40115 22.3184 2.41029C22.3192 2.4152 22.3199 2.42012 22.3207 2.42434C22.3303 2.52412 22.0889 2.55714 22.0151 2.56979C21.9294 2.58525 21.8265 2.58033 21.8228 2.61125C21.8131 2.68995 22.0375 2.64638 22.147 2.73492C22.1977 2.77637 22.1925 2.81221 22.191 2.87053C22.232 2.91058 22.2394 2.91902 22.3043 2.92393C22.4928 2.93658 22.6866 2.8087 22.867 2.86561C22.8595 2.87123 22.8528 2.87545 22.8513 2.88459C22.8364 2.88107 22.8207 2.90145 22.8185 2.91199C22.8066 2.90777 22.7857 2.92604 22.7902 2.93729C22.7812 2.9408 22.7768 2.94572 22.7708 2.95274C22.7745 2.96118 22.7783 2.9668 22.7827 2.97312Z" fill="white"/>
</g>
</g>
</g>
<mask id="mask6_11_406" style="mask-type:luminance" maskUnits="userSpaceOnUse" x="22" y="0" width="3" height="2">
<path d="M22.9697 0.899658H24.4961V1.25942H22.9697V0.899658Z" fill="white"/>
</mask>
<g mask="url(#mask6_11_406)">
<mask id="mask7_11_406" style="mask-type:luminance" maskUnits="userSpaceOnUse" x="21" y="0" width="5" height="5">
<path d="M25.2994 2.01901L24.2716 4.68141L21.1794 3.61968L22.2072 0.957275L25.2994 2.01901Z" fill="white"/>
</mask>
<g mask="url(#mask7_11_406)">
<mask id="mask8_11_406" style="mask-type:luminance" maskUnits="userSpaceOnUse" x="8" y="-4" width="20" height="18">
<path d="M27.191 1.12237L22.4436 13.4197L8.8623 8.75965L13.6097 -3.53772L27.191 1.12237Z" fill="white"/>
</mask>
<g mask="url(#mask8_11_406)">
<path fill-rule="evenodd" clip-rule="evenodd" d="M23.6866 0.823089C23.6918 0.823089 23.6956 0.823089 23.7015 0.822386C23.703 0.817467 23.7045 0.813954 23.7038 0.808333C23.7105 0.806927 23.7142 0.791469 23.7082 0.787253C23.7127 0.782334 23.7187 0.768983 23.712 0.763362C23.7164 0.759146 23.7164 0.75493 23.7172 0.750011C23.8044 0.816765 23.7969 0.947461 23.8633 1.03178C23.8856 1.06059 23.8931 1.06129 23.9266 1.06832C23.9572 1.04935 23.975 1.03529 24.0123 1.04654C24.0935 1.07043 24.1412 1.18918 24.18 1.15967C24.1957 1.14842 24.1599 1.10134 24.1412 1.05637C24.1249 1.01773 24.0667 0.894058 24.1226 0.867357C24.1256 0.865951 24.1278 0.865249 24.1308 0.863843C24.1174 0.832926 24.1077 0.799901 24.1465 0.783037C24.1144 0.751417 24.0846 0.719094 24.0526 0.687474C24.1114 0.687474 24.1919 0.698716 24.2098 0.650935C24.2217 0.61791 24.2173 0.641098 24.2381 0.615802C24.265 0.582074 24.2515 0.562399 24.256 0.546238C24.2612 0.527266 24.3022 0.499862 24.2978 0.42819C24.2955 0.389543 24.3231 0.355815 24.3268 0.317168C24.3283 0.301007 24.3238 0.288359 24.3156 0.274306C24.3782 0.161176 24.1457 0.151339 24.0764 0.182256C24.016 0.20966 23.9497 0.256036 23.9102 0.289764C23.8327 0.35441 23.7694 0.431703 23.7097 0.510402C23.7075 0.504078 23.7023 0.503375 23.6956 0.502673C23.7142 0.498456 23.7135 0.464729 23.6933 0.468242L23.6911 0.465431C23.7276 0.421866 23.7537 0.446459 23.7895 0.379003C23.7925 0.374787 23.7917 0.371274 23.7895 0.367058C23.788 0.367058 23.7872 0.367058 23.7865 0.367058C23.7738 0.38603 23.7925 0.405002 23.7224 0.438027C23.7082 0.444351 23.6993 0.452783 23.6904 0.465431C23.6844 0.456999 23.6799 0.449973 23.6777 0.440135H23.6695C23.668 0.450675 23.6643 0.457702 23.6583 0.466134C23.6494 0.454189 23.6397 0.446459 23.6248 0.440838C23.5525 0.411326 23.5704 0.391651 23.5555 0.372679C23.5547 0.372679 23.554 0.372679 23.5532 0.372679C23.551 0.377598 23.551 0.381111 23.5532 0.385327C23.5942 0.450675 23.6188 0.424677 23.6583 0.466837L23.6561 0.469647C23.6352 0.466837 23.6374 0.500565 23.6561 0.503375C23.6494 0.504781 23.6441 0.506186 23.6427 0.51251C23.5778 0.436622 23.5092 0.362842 23.4273 0.302412C23.3855 0.270792 23.3162 0.22793 23.2536 0.204039C23.1828 0.176635 22.951 0.19912 23.0218 0.308736C23.0144 0.32279 23.0107 0.335438 23.0136 0.351599C23.0196 0.390246 23.0494 0.422568 23.0502 0.461215C23.0502 0.532887 23.0934 0.558183 23.0993 0.576453C23.1053 0.592614 23.0926 0.612991 23.1224 0.645314C23.1448 0.669205 23.1381 0.646719 23.153 0.678339C23.1746 0.725418 23.2536 0.709959 23.3125 0.707149C23.2827 0.740174 23.2544 0.773902 23.2253 0.806927C23.2648 0.822386 23.2581 0.855411 23.2462 0.887734C23.2491 0.888437 23.2521 0.889139 23.2551 0.890545C23.3125 0.914435 23.2626 1.04021 23.2491 1.08026C23.2335 1.12594 23.2014 1.17442 23.2171 1.18496C23.2581 1.21237 23.2976 1.0908 23.3766 1.0634C23.4139 1.05005 23.4317 1.0627 23.4638 1.08026C23.4973 1.07183 23.504 1.07113 23.5249 1.04092C23.5845 0.953082 23.5689 0.822386 23.6509 0.751417C23.6523 0.757038 23.6523 0.761254 23.6568 0.764767C23.6509 0.770389 23.6583 0.783739 23.6628 0.788658C23.6576 0.792874 23.662 0.808333 23.6687 0.809035C23.6687 0.814657 23.6695 0.81817 23.6725 0.823089C23.6777 0.823089 23.6822 0.823791 23.6866 0.823089Z" fill="white"/>
</g>
</g>
</g>
<mask id="mask9_11_406" style="mask-type:luminance" maskUnits="userSpaceOnUse" x="3" y="4" width="5" height="5">
<path d="M3.50928 4.85706H7.7067V8.63459H3.50928V4.85706Z" fill="white"/>
</mask>
<g mask="url(#mask9_11_406)">
<mask id="mask10_11_406" style="mask-type:luminance" maskUnits="userSpaceOnUse" x="2" y="3" width="7" height="7">
<path d="M3.67762 3.48828L8.33562 4.22046L7.46513 9.14475L2.80713 8.41257L3.67762 3.48828Z" fill="white"/>
</mask>
<g mask="url(#mask10_11_406)">
<mask id="mask11_11_406" style="mask-type:luminance" maskUnits="userSpaceOnUse" x="-2" y="1" width="25" height="25">
<path d="M1.78607 1.35217L22.958 4.68071L19.3106 25.3075L-1.86133 21.979L1.78607 1.35217Z" fill="white"/>
</mask>
<g mask="url(#mask11_11_406)">
<path fill-rule="evenodd" clip-rule="evenodd" d="M6.0238 7.11049C6.03348 7.10346 6.04094 7.09643 6.05137 7.0866C6.0469 7.07325 6.04243 7.06411 6.03125 7.05427C6.04317 7.04022 6.02231 7.00438 6.00293 7.00438C6.00442 6.98822 5.99249 6.95028 5.96939 6.94887C5.97163 6.93412 5.96417 6.92568 5.95598 6.91374C6.24887 6.91444 6.465 7.19129 6.74672 7.25945C6.84286 7.28264 6.85851 7.27351 6.939 7.23416C6.96658 7.14773 6.97776 7.09292 7.07315 7.05638C7.27885 6.97768 7.58367 7.14492 7.6105 7.02476C7.62093 6.97768 7.4674 6.93763 7.3504 6.8758C7.24978 6.82169 6.91441 6.66289 6.97999 6.52095C6.98372 6.51462 6.98744 6.5076 6.99117 6.50127C6.90919 6.45982 6.83243 6.40712 6.88012 6.31226C6.76088 6.2975 6.64238 6.27853 6.52239 6.26448C6.64014 6.17313 6.82274 6.07054 6.77504 5.94476C6.74225 5.85904 6.77355 5.91384 6.77057 5.82952C6.76684 5.71921 6.70498 5.69953 6.68486 5.66018C6.66176 5.61381 6.69678 5.49435 6.56189 5.35522C6.4896 5.28004 6.48512 5.16902 6.42476 5.0847C6.39942 5.04886 6.36886 5.03059 6.32787 5.01584C6.25558 4.68769 5.76891 5.02989 5.68395 5.20134C5.60942 5.35101 5.55725 5.54776 5.53564 5.67845C5.4939 5.93141 5.50135 6.18578 5.52073 6.44014C5.50508 6.43101 5.49167 6.43663 5.47751 6.44576C5.50732 6.40852 5.44844 6.34107 5.41267 6.38042L5.40298 6.37831C5.4 6.23215 5.49614 6.24199 5.45142 6.04876C5.44844 6.03541 5.44173 6.02908 5.42757 6.02416C5.42608 6.02557 5.42459 6.02627 5.4231 6.02768C5.42981 6.0874 5.50135 6.09654 5.41788 6.27291C5.40149 6.30874 5.39776 6.33966 5.40223 6.37831C5.3754 6.37128 5.35379 6.36355 5.33218 6.34669L5.31578 6.36004C5.32994 6.38252 5.33516 6.40431 5.33888 6.4303C5.29938 6.42047 5.26585 6.41906 5.22635 6.4296C5.02885 6.483 5.02885 6.41485 4.96773 6.40079C4.96624 6.4015 4.96475 6.4029 4.96326 6.40431C4.96699 6.41766 4.97221 6.42468 4.98562 6.4296C5.18237 6.49846 5.1861 6.40712 5.33888 6.43101L5.34037 6.43944C5.29342 6.46755 5.35677 6.53219 5.4 6.509C5.38807 6.52095 5.38062 6.53289 5.38807 6.54835C5.12275 6.49565 4.85669 6.45279 4.58466 6.45701C4.44455 6.45911 4.22916 6.48019 4.06147 6.52868C3.86994 6.58419 3.44214 6.99033 3.77752 7.10276C3.78721 7.14421 3.80211 7.17443 3.8364 7.20324C3.91614 7.27069 4.03315 7.29037 4.10172 7.36907C4.22991 7.51382 4.36033 7.49836 4.40579 7.52576C4.44455 7.54965 4.45647 7.61008 4.57199 7.62905C4.65993 7.64381 4.60627 7.60657 4.69273 7.64943C4.81793 7.71127 4.95134 7.55527 5.06387 7.45831C5.06238 7.57144 5.06537 7.68527 5.06387 7.7984C5.1712 7.76678 5.21591 7.84548 5.24796 7.92839C5.25541 7.92558 5.26286 7.92347 5.27032 7.92066C5.42832 7.8792 5.54905 8.21367 5.59153 8.31486C5.64072 8.43291 5.66159 8.58117 5.71227 8.57836C5.84269 8.56993 5.70854 8.26216 5.82033 8.08157C5.87176 7.99796 5.93138 7.99514 6.02603 7.98109C6.07895 7.91153 6.09087 7.89818 6.07969 7.80542C6.0469 7.53349 5.78531 7.29318 5.82555 7.02055C5.83673 7.03038 5.84493 7.03741 5.86058 7.03811C5.85909 7.05919 5.8971 7.07606 5.91424 7.07676C5.91126 7.09503 5.94629 7.11892 5.96343 7.10978C5.97163 7.12173 5.98057 7.12735 5.99398 7.13297C6.00591 7.12524 6.01485 7.11892 6.0238 7.11049Z" fill="white"/>
</g>
</g>
</g>
<mask id="mask12_11_406" style="mask-type:luminance" maskUnits="userSpaceOnUse" x="2" y="5" width="2" height="3">
<path d="M2.74609 5.57654H3.12768V7.55525H2.74609V5.57654Z" fill="white"/>
</mask>
<g mask="url(#mask12_11_406)">
<mask id="mask13_11_406" style="mask-type:luminance" maskUnits="userSpaceOnUse" x="2" y="3" width="7" height="7">
<path d="M3.67762 3.48816L8.33562 4.22034L7.46513 9.14463L2.80713 8.41245L3.67762 3.48816Z" fill="white"/>
</mask>
<g mask="url(#mask13_11_406)">
<mask id="mask14_11_406" style="mask-type:luminance" maskUnits="userSpaceOnUse" x="-2" y="1" width="25" height="25">
<path d="M1.78607 1.35205L22.958 4.68058L19.3106 25.3074L-1.86133 21.9788L1.78607 1.35205Z" fill="white"/>
</mask>
<g mask="url(#mask14_11_406)">
<path fill-rule="evenodd" clip-rule="evenodd" d="M2.29953 6.4218C2.29804 6.41477 2.29655 6.40915 2.29357 6.40142C2.28537 6.40001 2.27867 6.39931 2.27047 6.40212C2.266 6.39228 2.24066 6.39228 2.23544 6.40142C2.2265 6.3965 2.20265 6.39158 2.1952 6.40212C2.18774 6.3972 2.18103 6.39791 2.17209 6.39861C2.25482 6.25667 2.46871 6.22997 2.58572 6.11262C2.62597 6.07257 2.62522 6.06203 2.62597 6.01144C2.58647 5.9742 2.55964 5.95312 2.56635 5.8962C2.58125 5.77394 2.75937 5.67346 2.70124 5.62567C2.67814 5.60741 2.61255 5.67065 2.54622 5.71C2.48809 5.74372 2.3055 5.86177 2.24662 5.7894C2.24364 5.78588 2.2414 5.78237 2.23917 5.77815C2.19296 5.80696 2.14228 5.82875 2.10353 5.77886C2.06179 5.83296 2.01782 5.88496 1.97608 5.93906C1.95969 5.85545 1.95447 5.7381 1.87249 5.72545C1.81585 5.71702 1.85535 5.71772 1.80765 5.69524C1.74579 5.66573 1.71822 5.69032 1.69064 5.68892C1.65859 5.68681 1.60344 5.63622 1.48867 5.66221C1.42681 5.67627 1.36421 5.64675 1.3016 5.65167C1.27477 5.65448 1.25614 5.66362 1.23602 5.67978C1.03554 5.62146 1.08547 5.95523 1.15553 6.04517C1.21664 6.12387 1.3098 6.20538 1.37539 6.25316C1.50208 6.34521 1.64443 6.41336 1.78902 6.4759C1.77933 6.48082 1.77933 6.48925 1.78007 6.49909C1.76815 6.47379 1.71449 6.48293 1.72567 6.51174L1.72194 6.51595C1.64071 6.4759 1.6735 6.43163 1.55425 6.39861C1.5468 6.3965 1.54158 6.39791 1.53413 6.40353C1.53488 6.40423 1.53488 6.40564 1.53488 6.40634C1.56991 6.42039 1.59524 6.38807 1.66828 6.47871C1.68319 6.49698 1.69884 6.50752 1.72194 6.51595C1.71002 6.5272 1.69958 6.53563 1.68468 6.54125L1.68691 6.5532C1.70331 6.55249 1.71673 6.55601 1.73238 6.56163C1.71523 6.57849 1.70555 6.59395 1.70033 6.61644C1.6735 6.72746 1.63624 6.70778 1.6109 6.73378C1.6109 6.73519 1.6109 6.73589 1.61164 6.73729C1.61984 6.7394 1.6258 6.7387 1.63176 6.73308C1.72492 6.65719 1.67648 6.62979 1.73238 6.56163L1.73759 6.56374C1.73983 6.59395 1.79349 6.582 1.79274 6.5546C1.79647 6.56303 1.8002 6.57076 1.81063 6.57146C1.70704 6.6853 1.60791 6.80264 1.53339 6.93615C1.49463 7.00431 1.44544 7.11533 1.42458 7.21019C1.40073 7.31981 1.50283 7.64303 1.65934 7.51163C1.68468 7.51866 1.70555 7.52007 1.73089 7.51163C1.79051 7.49196 1.83448 7.44066 1.89708 7.42942C2.0126 7.40834 2.04092 7.34018 2.06924 7.32613C2.09309 7.31418 2.12961 7.32543 2.17284 7.27483C2.20563 7.23548 2.1706 7.25165 2.2183 7.22143C2.28761 7.17857 2.23991 7.06966 2.2183 6.98674C2.28016 7.01977 2.34351 7.05068 2.40462 7.08301C2.41803 7.02258 2.47393 7.02328 2.52834 7.03101C2.52908 7.02679 2.52983 7.02187 2.53057 7.01766C2.55218 6.92912 2.76981 6.96496 2.83763 6.97339C2.91588 6.98323 3.00382 7.01485 3.01649 6.98955C3.04854 6.9235 2.8421 6.90172 2.77428 6.79562C2.74298 6.74713 2.75863 6.71762 2.77726 6.66703C2.75416 6.62206 2.75043 6.61222 2.69602 6.59184C2.53802 6.53071 2.33233 6.58973 2.1937 6.49277C2.2019 6.48996 2.20861 6.48785 2.21308 6.48012C2.22501 6.48714 2.24438 6.47309 2.2496 6.46536C2.25929 6.47169 2.28239 6.46185 2.28165 6.45131C2.29059 6.4499 2.29581 6.44709 2.30326 6.44217C2.30252 6.43444 2.30103 6.42882 2.29953 6.4218Z" fill="white"/>
</g>
</g>
</g>
<mask id="mask15_11_406" style="mask-type:luminance" maskUnits="userSpaceOnUse" x="12" y="0" width="6" height="5">
<path d="M12.8577 0H17.4367V4.1373H12.8577V0Z" fill="white"/>
</mask>
<g mask="url(#mask15_11_406)">
<mask id="mask16_11_406" style="mask-type:luminance" maskUnits="userSpaceOnUse" x="10" y="-3" width="10" height="9">
<path d="M10.5569 2.018L15.2559 -2.70532L19.7432 1.26334L15.045 5.98667L10.5569 2.018Z" fill="white"/>
</mask>
<g mask="url(#mask16_11_406)">
<mask id="mask17_11_406" style="mask-type:luminance" maskUnits="userSpaceOnUse" x="-9" y="-6" width="43" height="41">
<path d="M-8.45605 15.8831L12.3947 -5.07678L33.4772 13.5664L12.6264 34.5262L-8.45605 15.8831Z" fill="white"/>
</mask>
<g mask="url(#mask17_11_406)">
<path fill-rule="evenodd" clip-rule="evenodd" d="M15.077 3.52037C14.8519 3.31239 15.0487 2.66945 15.0852 2.15017C14.9637 2.38346 14.8415 2.61745 14.72 2.85144C13.8249 4.15207 14.1432 3.4473 13.7228 3.28639C12.1667 4.35093 13.2391 3.61172 13.6602 3.20277C13.6483 3.16904 13.6371 3.13531 13.6252 3.10229C13.4731 3.02218 13.187 2.91819 13.4396 2.76149C13.2935 2.6048 13.2257 2.52399 13.4776 2.38346C13.1281 1.98997 14.6403 1.90354 14.8124 1.87613C14.3414 1.87824 13.9986 1.9197 13.5328 2.00824C12.9321 1.75809 13.3964 0.918399 13.1378 0.212219C13.5164 -0.181275 14.9227 1.0512 15.08 1.72155C15.0889 1.70539 15.0971 1.69414 15.1053 1.68501C15.112 1.64917 15.1351 1.61474 15.1098 1.59647C15.0755 1.57118 15.0912 1.53253 15.1172 1.51848C14.8139 0.111738 14.398 0.280378 14.1715 0.253676C14.8057 0.179896 14.9406 0.772947 15.1441 1.49669C15.1605 1.46718 15.2082 1.4728 15.2149 1.50583C15.431 0.74203 15.6695 0.177086 16.2426 0.265622C16.1621 0.302863 15.6128 0.0140668 15.241 1.52621C15.2626 1.54377 15.2715 1.57961 15.238 1.60069C15.2059 1.62107 15.2313 1.65339 15.235 1.69906C15.2424 1.7082 15.2492 1.72014 15.2559 1.7363C15.4847 1.08423 17.0222 -0.0505786 17.3568 0.37594C17.0237 1.05472 17.3948 1.93375 16.771 2.12558C16.3164 1.99418 15.9803 1.9204 15.5115 1.87262C15.6799 1.91619 17.175 2.14596 16.7859 2.50432C17.0207 2.66804 16.9447 2.74182 16.7829 2.88376C17.0177 3.06434 16.7211 3.14023 16.5616 3.20488C16.5467 3.2372 16.531 3.26952 16.5161 3.30185C16.891 3.74944 17.8792 4.58632 16.4446 3.37984C16.0086 3.5 16.2501 4.23147 15.4988 2.85214C15.4034 2.60831 15.308 2.3947 15.2126 2.15088C15.194 2.64907 15.3282 3.38125 15.077 3.52037Z" fill="white"/>
</g>
</g>
</g>
</svg>
